EBGaramondVF-DisplayExpanded_XBold.ufo
<glyph name="exclam" format="1">
  <advance width="402"/>
  <unicode hex="0021"/>
  <outline>
    <contour>
      <point x="203" y="205" type="curve" smooth="yes"/>
      <point x="233" y="205"/>
      <point x="256" y="219"/>
      <point x="263" y="248" type="curve" smooth="yes"/>
      <point x="290" y="368"/>
      <point x="323" y="504"/>
      <point x="323" y="569" type="curve" smooth="yes"/>
      <point x="323" y="611"/>
      <point x="276" y="649"/>
      <point x="204" y="649" type="curve" smooth="yes"/>
      <point x="132" y="649"/>
      <point x="79" y="611"/>
      <point x="79" y="569" type="curve" smooth="yes"/>
      <point x="79" y="504"/>
      <point x="110" y="368"/>
      <point x="141" y="249" type="curve" smooth="yes"/>
      <point x="149" y="222"/>
      <point x="173" y="205"/>
    </contour>
    <contour>
      <point x="200" y="-14" type="curve" smooth="yes"/>
      <point x="290" y="-14"/>
      <point x="337" y="6"/>
      <point x="337" y="49" type="curve" smooth="yes"/>
      <point x="337" y="91"/>
      <point x="290" y="112"/>
      <point x="200" y="112" type="curve" smooth="yes"/>
      <point x="113" y="112"/>
      <point x="65" y="91"/>
      <point x="65" y="49" type="curve" smooth="yes"/>
      <point x="65" y="6"/>
      <point x="113" y="-14"/>
    </contour>
  </outline>
</glyph>
<glyph name="dollar" format="1">
  <advance width="736"/>
  <unicode hex="0024"/>
  <outline>
    <contour>
      <point x="328" y="-82" type="curve" smooth="yes"/>
      <point x="334" y="-82"/>
      <point x="341" y="-78"/>
      <point x="342" y="-70" type="curve" smooth="yes"/>
      <point x="351" y="-6" type="line" smooth="yes"/>
      <point x="351" y="0"/>
      <point x="356" y="1"/>
      <point x="362" y="1" type="curve" smooth="yes"/>
      <point x="556" y="-1"/>
      <point x="693" y="97"/>
      <point x="693" y="231" type="curve" smooth="yes"/>
      <point x="693" y="327"/>
      <point x="623" y="376"/>
      <point x="424" y="415" type="curve"/>
      <point x="411" y="417"/>
      <point x="412" y="421"/>
      <point x="413" y="426" type="curve" smooth="yes"/>
      <point x="432" y="558" type="line"/>
      <point x="433" y="565"/>
      <point x="437" y="567"/>
      <point x="442" y="567" type="curve" smooth="yes"/>
      <point x="558" y="573"/>
      <point x="614" y="531"/>
      <point x="645" y="463" type="curve" smooth="yes"/>
      <point x="648" y="458"/>
      <point x="656" y="450"/>
      <point x="668" y="450" type="curve" smooth="yes"/>
      <point x="676" y="450"/>
      <point x="681" y="454"/>
      <point x="681" y="461" type="curve" smooth="yes"/>
      <point x="681" y="488"/>
      <point x="668" y="522"/>
      <point x="659" y="546" type="curve" smooth="yes"/>
      <point x="656" y="555"/>
      <point x="639" y="564"/>
      <point x="623" y="568" type="curve" smooth="yes"/>
      <point x="588" y="575"/>
      <point x="534" y="589"/>
      <point x="443" y="587" type="curve" smooth="yes"/>
      <point x="439" y="587"/>
      <point x="437" y="589"/>
      <point x="437" y="596" type="curve" smooth="yes"/>
      <point x="439" y="618"/>
      <point x="443" y="642"/>
      <point x="443" y="647" type="curve"/>
      <point x="443" y="654"/>
      <point x="440" y="658"/>
      <point x="436" y="658" type="curve" smooth="yes"/>
      <point x="428" y="658"/>
      <point x="422" y="656"/>
      <point x="420" y="644" type="curve" smooth="yes"/>
      <point x="415" y="594" type="line" smooth="yes"/>
      <point x="414" y="589"/>
      <point x="413" y="586"/>
      <point x="409" y="586" type="curve" smooth="yes"/>
      <point x="150" y="581"/>
      <point x="75" y="494"/>
      <point x="75" y="391" type="curve" smooth="yes"/>
      <point x="75" y="280"/>
      <point x="183" y="229"/>
      <point x="350" y="204" type="curve" smooth="yes"/>
      <point x="357" y="202"/>
      <point x="359" y="198"/>
      <point x="358" y="193" type="curve" smooth="yes"/>
      <point x="334" y="28" type="line" smooth="yes"/>
      <point x="333" y="23"/>
      <point x="330" y="22"/>
      <point x="324" y="22" type="curve"/>
      <point x="205" y="26"/>
      <point x="120" y="50"/>
      <point x="75" y="160" type="curve" smooth="yes"/>
      <point x="71" y="165"/>
      <point x="68" y="171"/>
      <point x="61" y="171" type="curve" smooth="yes"/>
      <point x="54" y="171"/>
      <point x="47" y="164"/>
      <point x="47" y="158" type="curve"/>
      <point x="50" y="133"/>
      <point x="53" y="87"/>
      <point x="63" y="64" type="curve" smooth="yes"/>
      <point x="66" y="58"/>
      <point x="76" y="51"/>
      <point x="84" y="47" type="curve" smooth="yes"/>
      <point x="143" y="23"/>
      <point x="235" y="-1"/>
      <point x="319" y="2" type="curve" smooth="yes"/>
      <point x="324" y="2"/>
      <point x="329" y="0"/>
      <point x="328" y="-7" type="curve"/>
      <point x="320" y="-68" type="line" smooth="yes"/>
      <point x="318" y="-75"/>
      <point x="323" y="-82"/>
    </contour>
    <contour>
      <point x="367" y="20" type="curve"/>
      <point x="359" y="20"/>
      <point x="358" y="23"/>
      <point x="358" y="30" type="curve"/>
      <point x="382" y="199" type="line" smooth="yes"/>
      <point x="383" y="203"/>
      <point x="385" y="206"/>
      <point x="390" y="206" type="curve"/>
      <point x="547" y="188"/>
      <point x="568" y="158"/>
      <point x="568" y="120" type="curve" smooth="yes"/>
      <point x="568" y="69"/>
      <point x="482" y="18"/>
    </contour>
    <contour>
      <point x="381" y="417" type="curve"/>
      <point x="257" y="438"/>
      <point x="218" y="465"/>
      <point x="218" y="496" type="curve" smooth="yes"/>
      <point x="218" y="531"/>
      <point x="276" y="567"/>
      <point x="403" y="566" type="curve"/>
      <point x="409" y="566"/>
      <point x="411" y="564"/>
      <point x="411" y="558" type="curve"/>
      <point x="391" y="423" type="line"/>
      <point x="390" y="417"/>
      <point x="387" y="416"/>
    </contour>
  </outline>
</glyph>
<glyph name="ampersand" format="1">
  <advance width="1237"/>
  <unicode hex="0026"/>
  <outline>
    <contour>
      <point x="320" y="-15" type="curve" smooth="yes"/>
      <point x="466" y="-15"/>
      <point x="550" y="28"/>
      <point x="649" y="96" type="curve"/>
      <point x="668" y="109" type="line"/>
      <point x="686" y="87" type="line" smooth="yes"/>
      <point x="738" y="30"/>
      <point x="785" y="-14"/>
      <point x="947" y="-14" type="curve" smooth="yes"/>
      <point x="1054" y="-14"/>
      <point x="1184" y="32"/>
      <point x="1184" y="57" type="curve" smooth="yes"/>
      <point x="1184" y="62"/>
      <point x="1183" y="65"/>
      <point x="1173" y="65" type="curve" smooth="yes"/>
      <point x="1166" y="65"/>
      <point x="1157" y="60"/>
      <point x="1147" y="55" type="curve" smooth="yes"/>
      <point x="1120" y="44"/>
      <point x="1093" y="35"/>
      <point x="1047" y="35" type="curve" smooth="yes"/>
      <point x="976" y="35"/>
      <point x="915" y="79"/>
      <point x="856" y="140" type="curve" smooth="yes"/>
      <point x="830" y="168" type="line"/>
      <point x="830" y="168"/>
      <point x="1052" y="342"/>
      <point x="1071" y="353" type="curve" smooth="yes"/>
      <point x="1094" y="366"/>
      <point x="1126" y="380"/>
      <point x="1170" y="382" type="curve"/>
      <point x="1194" y="383"/>
      <point x="1213" y="393"/>
      <point x="1213" y="402" type="curve" smooth="yes"/>
      <point x="1213" y="406"/>
      <point x="1203" y="411"/>
      <point x="1193" y="411" type="curve" smooth="yes"/>
      <point x="1151" y="411"/>
      <point x="1081" y="401"/>
      <point x="1029" y="401" type="curve" smooth="yes"/>
      <point x="1003" y="401"/>
      <point x="918" y="404"/>
      <point x="907" y="404" type="curve" smooth="yes"/>
      <point x="900" y="404"/>
      <point x="869" y="403"/>
      <point x="869" y="393" type="curve" smooth="yes"/>
      <point x="869" y="389"/>
      <point x="884" y="384"/>
      <point x="901" y="382" type="curve"/>
      <point x="938" y="378"/>
      <point x="943" y="364"/>
      <point x="943" y="355" type="curve" smooth="yes"/>
      <point x="943" y="335"/>
      <point x="892" y="255"/>
      <point x="841" y="200" type="curve" smooth="yes"/>
      <point x="820" y="178" type="line"/>
      <point x="801" y="197" type="line" smooth="yes"/>
      <point x="746" y="249"/>
      <point x="705" y="292"/>
      <point x="644" y="346" type="curve" smooth="yes"/>
      <point x="628" y="360" type="line"/>
      <point x="644" y="365" type="line" smooth="yes"/>
      <point x="722" y="389"/>
      <point x="853" y="426"/>
      <point x="853" y="477" type="curve" smooth="yes"/>
      <point x="853" y="529"/>
      <point x="768" y="599"/>
      <point x="591" y="599" type="curve" smooth="yes"/>
      <point x="449" y="599"/>
      <point x="305" y="554"/>
      <point x="305" y="484" type="curve" smooth="yes"/>
      <point x="305" y="443"/>
      <point x="356" y="411"/>
      <point x="399" y="369" type="curve"/>
      <point x="422" y="348" type="line"/>
      <point x="386" y="339" type="line" smooth="yes"/>
      <point x="181" y="292"/>
      <point x="44" y="235"/>
      <point x="44" y="127" type="curve" smooth="yes"/>
      <point x="44" y="45"/>
      <point x="156" y="-15"/>
    </contour>
    <contour>
      <point x="443" y="49" type="curve" smooth="yes"/>
      <point x="349" y="48"/>
      <point x="276" y="88"/>
      <point x="276" y="160" type="curve" smooth="yes"/>
      <point x="276" y="219"/>
      <point x="292" y="292"/>
      <point x="410" y="329" type="curve" smooth="yes"/>
      <point x="437" y="337" type="line"/>
      <point x="454" y="322" type="line" smooth="yes"/>
      <point x="521" y="259"/>
      <point x="595" y="184"/>
      <point x="639" y="137" type="curve" smooth="yes"/>
      <point x="657" y="118" type="line"/>
      <point x="634" y="105" type="line" smooth="yes"/>
      <point x="575" y="70"/>
      <point x="514" y="49"/>
    </contour>
    <contour>
      <point x="612" y="369" type="line"/>
      <point x="591" y="388" type="line" smooth="yes"/>
      <point x="524" y="449"/>
      <point x="507" y="471"/>
      <point x="507" y="514" type="curve" smooth="yes"/>
      <point x="507" y="554"/>
      <point x="554" y="584"/>
      <point x="606" y="584" type="curve" smooth="yes"/>
      <point x="666" y="584"/>
      <point x="695" y="535"/>
      <point x="695" y="484" type="curve" smooth="yes"/>
      <point x="695" y="441"/>
      <point x="677" y="395"/>
      <point x="629" y="376" type="curve" smooth="yes"/>
    </contour>
  </outline>
</glyph>
<glyph name="asterisk" format="1">
  <advance width="398"/>
  <unicode hex="002A"/>
  <outline>
    <contour>
      <point x="214" y="361" type="curve" smooth="yes"/>
      <point x="227" y="361"/>
      <point x="233" y="377"/>
      <point x="234" y="392" type="curve"/>
      <point x="236" y="421"/>
      <point x="234" y="454"/>
      <point x="235" y="470" type="curve"/>
      <point x="266" y="463"/>
      <point x="295" y="455"/>
      <point x="325" y="449" type="curve" smooth="yes"/>
      <point x="346" y="445"/>
      <point x="366" y="451"/>
      <point x="366" y="464" type="curve" smooth="yes"/>
      <point x="366" y="472"/>
      <point x="357" y="481"/>
      <point x="347" y="487" type="curve"/>
      <point x="312" y="504"/>
      <point x="278" y="515"/>
      <point x="260" y="524" type="curve"/>
      <point x="330" y="574" type="line"/>
      <point x="340" y="581"/>
      <point x="344" y="591"/>
      <point x="344" y="599" type="curve" smooth="yes"/>
      <point x="344" y="609"/>
      <point x="337" y="617"/>
      <point x="326" y="617" type="curve" smooth="yes"/>
      <point x="318" y="617"/>
      <point x="309" y="613"/>
      <point x="299" y="609" type="curve"/>
      <point x="273" y="595"/>
      <point x="241" y="580"/>
      <point x="221" y="571" type="curve"/>
      <point x="204" y="646" type="line" smooth="yes"/>
      <point x="201" y="660"/>
      <point x="195" y="672"/>
      <point x="183" y="673" type="curve" smooth="yes"/>
      <point x="170" y="672"/>
      <point x="164" y="657"/>
      <point x="164" y="641" type="curve" smooth="yes"/>
      <point x="161" y="613"/>
      <point x="162" y="590"/>
      <point x="162" y="565" type="curve"/>
      <point x="132" y="574"/>
      <point x="102" y="582"/>
      <point x="73" y="589" type="curve"/>
      <point x="51" y="596"/>
      <point x="32" y="591"/>
      <point x="32" y="575" type="curve" smooth="yes"/>
      <point x="32" y="563"/>
      <point x="43" y="556"/>
      <point x="55" y="550" type="curve"/>
      <point x="85" y="536"/>
      <point x="118" y="520"/>
      <point x="135" y="511" type="curve"/>
      <point x="67" y="462" type="line"/>
      <point x="57" y="457"/>
      <point x="52" y="447"/>
      <point x="52" y="438" type="curve" smooth="yes"/>
      <point x="52" y="428"/>
      <point x="58" y="421"/>
      <point x="72" y="421" type="curve" smooth="yes"/>
      <point x="79" y="421"/>
      <point x="86" y="424"/>
      <point x="96" y="428" type="curve"/>
      <point x="123" y="439"/>
      <point x="153" y="457"/>
      <point x="174" y="463" type="curve"/>
      <point x="192" y="388" type="line" smooth="yes"/>
      <point x="195" y="373"/>
      <point x="203" y="361"/>
    </contour>
  </outline>
</glyph>
<glyph name="zero" format="1">
  <advance width="1070"/>
  <unicode hex="0030"/>
  <outline>
    <contour>
      <point x="523" y="-13" type="curve" smooth="yes"/>
      <point x="880" y="-13"/>
      <point x="1030" y="153"/>
      <point x="1030" y="292" type="curve" smooth="yes"/>
      <point x="1030" y="427"/>
      <point x="876" y="583"/>
      <point x="547" y="583" type="curve" smooth="yes"/>
      <point x="190" y="583"/>
      <point x="40" y="420"/>
      <point x="40" y="279" type="curve" smooth="yes"/>
      <point x="40" y="142"/>
      <point x="195" y="-13"/>
    </contour>
    <contour>
      <point x="550" y="2" type="curve" smooth="yes"/>
      <point x="435" y="2"/>
      <point x="379" y="153"/>
      <point x="379" y="297" type="curve" smooth="yes"/>
      <point x="379" y="439"/>
      <point x="415" y="565"/>
      <point x="517" y="565" type="curve" smooth="yes"/>
      <point x="632" y="565"/>
      <point x="693" y="419"/>
      <point x="693" y="275" type="curve" smooth="yes"/>
      <point x="693" y="132"/>
      <point x="653" y="2"/>
    </contour>
  </outline>
</glyph>
<glyph name="one" format="1">
  <advance width="1070"/>
  <unicode hex="0031"/>
  <outline>
    <contour>
      <point x="273" y="-3" type="curve" smooth="yes"/>
      <point x="365" y="-3"/>
      <point x="456" y="2"/>
      <point x="552" y="2" type="curve" smooth="yes"/>
      <point x="646" y="2"/>
      <point x="728" y="-3"/>
      <point x="826" y="-3" type="curve" smooth="yes"/>
      <point x="843" y="-3"/>
      <point x="854" y="1"/>
      <point x="854" y="4" type="curve" smooth="yes"/>
      <point x="854" y="7"/>
      <point x="846" y="11"/>
      <point x="833" y="13" type="curve" smooth="yes"/>
      <point x="738" y="23"/>
      <point x="714" y="26"/>
      <point x="714" y="88" type="curve" smooth="yes"/>
      <point x="714" y="510" type="line" smooth="yes"/>
      <point x="714" y="538"/>
      <point x="715" y="561"/>
      <point x="718" y="579" type="curve"/>
      <point x="719" y="586"/>
      <point x="712" y="590"/>
      <point x="706" y="590" type="curve" smooth="yes"/>
      <point x="699" y="590"/>
      <point x="683" y="586"/>
      <point x="655" y="564" type="curve" smooth="yes"/>
      <point x="591" y="535"/>
      <point x="487" y="522"/>
      <point x="318" y="519" type="curve" smooth="yes"/>
      <point x="285" y="519"/>
      <point x="258" y="515"/>
      <point x="258" y="509" type="curve" smooth="yes"/>
      <point x="258" y="501"/>
      <point x="271" y="499"/>
      <point x="284" y="498" type="curve" smooth="yes"/>
      <point x="364" y="496"/>
      <point x="385" y="488"/>
      <point x="385" y="437" type="curve" smooth="yes"/>
      <point x="385" y="94" type="line" smooth="yes"/>
      <point x="385" y="28"/>
      <point x="351" y="21"/>
      <point x="261" y="13" type="curve" smooth="yes"/>
      <point x="250" y="12"/>
      <point x="243" y="7"/>
      <point x="243" y="5" type="curve" smooth="yes"/>
      <point x="243" y="1"/>
      <point x="252" y="-3"/>
    </contour>
  </outline>
</glyph>
<glyph name="two" format="1">
  <advance width="1070"/>
  <unicode hex="0032"/>
  <outline>
    <contour>
      <point x="853" y="-3" type="curve" smooth="yes"/>
      <point x="861" y="-3"/>
      <point x="874" y="2"/>
      <point x="878" y="40" type="curve" smooth="yes"/>
      <point x="890" y="130"/>
      <point x="910" y="240"/>
      <point x="910" y="249" type="curve" smooth="yes"/>
      <point x="910" y="254"/>
      <point x="904" y="261"/>
      <point x="896" y="261" type="curve" smooth="yes"/>
      <point x="886" y="261"/>
      <point x="878" y="253"/>
      <point x="873" y="244" type="curve" smooth="yes"/>
      <point x="846" y="191"/>
      <point x="834" y="177"/>
      <point x="753" y="175" type="curve" smooth="yes"/>
      <point x="667" y="173"/>
      <point x="601" y="172"/>
      <point x="542" y="172" type="curve" smooth="yes"/>
      <point x="484" y="172"/>
      <point x="431" y="171"/>
      <point x="397" y="175" type="curve" smooth="yes"/>
      <point x="384" y="176"/>
      <point x="375" y="177"/>
      <point x="375" y="182" type="curve" smooth="yes"/>
      <point x="477" y="231"/>
      <point x="561" y="227"/>
      <point x="661" y="262" type="curve" smooth="yes"/>
      <point x="771" y="319"/>
      <point x="839" y="379"/>
      <point x="839" y="456" type="curve" smooth="yes"/>
      <point x="839" y="531"/>
      <point x="716" y="582"/>
      <point x="509" y="582" type="curve" smooth="yes"/>
      <point x="292" y="582"/>
      <point x="205" y="510"/>
      <point x="176" y="446" type="curve" smooth="yes"/>
      <point x="170" y="436"/>
      <point x="177" y="429"/>
      <point x="181" y="429" type="curve" smooth="yes"/>
      <point x="186" y="429"/>
      <point x="189" y="435"/>
      <point x="194" y="440" type="curve"/>
      <point x="237" y="488"/>
      <point x="296" y="519"/>
      <point x="365" y="519" type="curve" smooth="yes"/>
      <point x="451" y="519"/>
      <point x="501" y="476"/>
      <point x="501" y="411" type="curve" smooth="yes"/>
      <point x="501" y="328"/>
      <point x="442" y="243"/>
      <point x="349" y="172" type="curve" smooth="yes"/>
      <point x="151" y="26" type="line" smooth="yes"/>
      <point x="144" y="20"/>
      <point x="142" y="19"/>
      <point x="142" y="14" type="curve" smooth="yes"/>
      <point x="142" y="8"/>
      <point x="159" y="-2"/>
      <point x="165" y="-2" type="curve" smooth="yes"/>
      <point x="202" y="-2"/>
      <point x="505" y="3"/>
      <point x="598" y="3" type="curve" smooth="yes"/>
      <point x="691" y="3"/>
      <point x="816" y="-3"/>
    </contour>
  </outline>
</glyph>
<glyph name="three" format="1">
  <advance width="1070"/>
  <unicode hex="0033"/>
  <outline>
    <contour>
      <point x="390" y="-38" type="curve" smooth="yes"/>
      <point x="637" y="-38"/>
      <point x="890" y="46"/>
      <point x="890" y="186" type="curve" smooth="yes"/>
      <point x="890" y="290"/>
      <point x="747" y="340"/>
      <point x="567" y="332" type="curve" smooth="yes"/>
      <point x="564" y="334"/>
      <point x="564" y="336"/>
      <point x="565" y="338" type="curve"/>
      <point x="743" y="359"/>
      <point x="834" y="410"/>
      <point x="834" y="476" type="curve" smooth="yes"/>
      <point x="834" y="540"/>
      <point x="710" y="582"/>
      <point x="581" y="582" type="curve" smooth="yes"/>
      <point x="301" y="582"/>
      <point x="206" y="488"/>
      <point x="206" y="454" type="curve" smooth="yes"/>
      <point x="206" y="446"/>
      <point x="213" y="440"/>
      <point x="219" y="440" type="curve" smooth="yes"/>
      <point x="233" y="440"/>
      <point x="251" y="526"/>
      <point x="385" y="526" type="curve" smooth="yes"/>
      <point x="458" y="526"/>
      <point x="501" y="486"/>
      <point x="501" y="435" type="curve" smooth="yes"/>
      <point x="501" y="360"/>
      <point x="385" y="315"/>
      <point x="350" y="301" type="curve" smooth="yes"/>
      <point x="329" y="296"/>
      <point x="314" y="288"/>
      <point x="309" y="274" type="curve" smooth="yes"/>
      <point x="307" y="268"/>
      <point x="319" y="265"/>
      <point x="331" y="270" type="curve" smooth="yes"/>
      <point x="358" y="283"/>
      <point x="393" y="287"/>
      <point x="412" y="287" type="curve" smooth="yes"/>
      <point x="509" y="287"/>
      <point x="554" y="213"/>
      <point x="554" y="141" type="curve" smooth="yes"/>
      <point x="554" y="56"/>
      <point x="478" y="-12"/>
      <point x="375" y="-12" type="curve" smooth="yes"/>
      <point x="329" y="-12"/>
      <point x="302" y="9"/>
      <point x="281" y="26" type="curve" smooth="yes"/>
      <point x="266" y="39"/>
      <point x="252" y="49"/>
      <point x="234" y="49" type="curve" smooth="yes"/>
      <point x="216" y="51"/>
      <point x="185" y="17"/>
      <point x="185" y="4" type="curve" smooth="yes"/>
      <point x="185" y="-10"/>
      <point x="305" y="-38"/>
    </contour>
  </outline>
</glyph>
<glyph name="six" format="1">
  <advance width="1070"/>
  <unicode hex="0036"/>
  <outline>
    <contour>
      <point x="536" y="-16" type="curve" smooth="yes"/>
      <point x="766" y="-16"/>
      <point x="1023" y="59"/>
      <point x="1023" y="176" type="curve" smooth="yes"/>
      <point x="1023" y="270"/>
      <point x="895" y="338"/>
      <point x="753" y="338" type="curve" smooth="yes"/>
      <point x="684" y="338"/>
      <point x="582" y="317"/>
      <point x="520" y="277" type="curve" smooth="yes"/>
      <point x="502" y="267"/>
      <point x="490" y="259"/>
      <point x="478" y="247" type="curve" smooth="yes"/>
      <point x="468" y="239"/>
      <point x="470" y="226"/>
      <point x="488" y="234" type="curve" smooth="yes"/>
      <point x="514" y="246"/>
      <point x="549" y="256"/>
      <point x="585" y="256" type="curve" smooth="yes"/>
      <point x="651" y="256"/>
      <point x="699" y="198"/>
      <point x="699" y="130" type="curve" smooth="yes"/>
      <point x="699" y="43"/>
      <point x="635" y="3"/>
      <point x="560" y="4" type="curve" smooth="yes"/>
      <point x="481" y="5"/>
      <point x="385" y="62"/>
      <point x="383" y="169" type="curve" smooth="yes"/>
      <point x="379" y="278"/>
      <point x="445" y="393"/>
      <point x="520" y="465" type="curve" smooth="yes"/>
      <point x="576" y="516"/>
      <point x="650" y="549"/>
      <point x="742" y="579" type="curve" smooth="yes"/>
      <point x="750" y="581"/>
      <point x="765" y="584"/>
      <point x="771" y="592" type="curve" smooth="yes"/>
      <point x="773" y="594"/>
      <point x="764" y="599"/>
      <point x="750" y="597" type="curve" smooth="yes"/>
      <point x="616" y="580"/>
      <point x="510" y="562"/>
      <point x="408" y="526" type="curve" smooth="yes"/>
      <point x="190" y="429"/>
      <point x="49" y="305"/>
      <point x="49" y="178" type="curve" smooth="yes"/>
      <point x="49" y="48"/>
      <point x="291" y="-16"/>
    </contour>
  </outline>
</glyph>
<glyph name="seven" format="1">
  <advance width="1070"/>
  <unicode hex="0037"/>
  <outline>
    <contour>
      <point x="426" y="-32" type="curve" smooth="yes"/>
      <point x="430" y="-32"/>
      <point x="437" y="-17"/>
      <point x="447" y="-7" type="curve" smooth="yes"/>
      <point x="951" y="495" type="line" smooth="yes"/>
      <point x="966" y="509"/>
      <point x="996" y="547"/>
      <point x="996" y="562" type="curve" smooth="yes"/>
      <point x="996" y="567"/>
      <point x="992" y="574"/>
      <point x="989" y="574" type="curve" smooth="yes"/>
      <point x="962" y="574"/>
      <point x="731" y="569"/>
      <point x="459" y="569" type="curve" smooth="yes"/>
      <point x="394" y="569"/>
      <point x="363" y="570"/>
      <point x="322" y="570" type="curve" smooth="yes"/>
      <point x="264" y="570"/>
      <point x="210" y="579"/>
      <point x="206" y="579" type="curve" smooth="yes"/>
      <point x="199" y="579"/>
      <point x="184" y="573"/>
      <point x="182" y="552" type="curve" smooth="yes"/>
      <point x="177" y="491"/>
      <point x="160" y="392"/>
      <point x="143" y="321" type="curve"/>
      <point x="141" y="309"/>
      <point x="135" y="286"/>
      <point x="135" y="267" type="curve" smooth="yes"/>
      <point x="135" y="255"/>
      <point x="137" y="233"/>
      <point x="149" y="233" type="curve" smooth="yes"/>
      <point x="152" y="233"/>
      <point x="154" y="245"/>
      <point x="158" y="257" type="curve" smooth="yes"/>
      <point x="172" y="292"/>
      <point x="196" y="301"/>
      <point x="224" y="301" type="curve" smooth="yes"/>
      <point x="754" y="301" type="line"/>
      <point x="741" y="323" type="line"/>
      <point x="446" y="30" type="line" smooth="yes"/>
      <point x="432" y="16"/>
      <point x="412" y="-16"/>
      <point x="412" y="-20" type="curve" smooth="yes"/>
      <point x="412" y="-27"/>
      <point x="416" y="-32"/>
    </contour>
  </outline>
</glyph>
<glyph name="eight" format="1">
  <advance width="1070"/>
  <unicode hex="0038"/>
  <outline>
    <contour>
      <point x="510" y="-14" type="curve" smooth="yes"/>
      <point x="721" y="-14"/>
      <point x="934" y="55"/>
      <point x="934" y="152" type="curve" smooth="yes"/>
      <point x="934" y="224"/>
      <point x="825" y="297"/>
      <point x="732" y="345" type="curve" smooth="yes"/>
      <point x="719" y="352"/>
      <point x="716" y="362"/>
      <point x="739" y="365" type="curve" smooth="yes"/>
      <point x="762" y="368"/>
      <point x="786" y="372"/>
      <point x="809" y="381" type="curve" smooth="yes"/>
      <point x="854" y="397"/>
      <point x="895" y="424"/>
      <point x="895" y="458" type="curve" smooth="yes"/>
      <point x="895" y="533"/>
      <point x="725" y="582"/>
      <point x="553" y="582" type="curve" smooth="yes"/>
      <point x="365" y="582"/>
      <point x="168" y="524"/>
      <point x="168" y="449" type="curve" smooth="yes"/>
      <point x="168" y="373"/>
      <point x="284" y="299"/>
      <point x="356" y="251" type="curve" smooth="yes"/>
      <point x="366" y="244"/>
      <point x="372" y="240"/>
      <point x="359" y="239" type="curve" smooth="yes"/>
      <point x="275" y="231"/>
      <point x="136" y="211"/>
      <point x="136" y="130" type="curve" smooth="yes"/>
      <point x="136" y="44"/>
      <point x="316" y="-14"/>
    </contour>
    <contour>
      <point x="527" y="4" type="curve" smooth="yes"/>
      <point x="430" y="4"/>
      <point x="341" y="119"/>
      <point x="341" y="166" type="curve" smooth="yes"/>
      <point x="341" y="189"/>
      <point x="355" y="204"/>
      <point x="386" y="216" type="curve" smooth="yes"/>
      <point x="390" y="218"/>
      <point x="395" y="219"/>
      <point x="398" y="219" type="curve" smooth="yes"/>
      <point x="405" y="219"/>
      <point x="411" y="217"/>
      <point x="420" y="214" type="curve"/>
      <point x="483" y="192"/>
      <point x="639" y="94"/>
      <point x="639" y="61" type="curve" smooth="yes"/>
      <point x="639" y="30"/>
      <point x="592" y="4"/>
    </contour>
    <contour>
      <point x="693" y="367" type="curve"/>
      <point x="687" y="364"/>
      <point x="680" y="366"/>
      <point x="675" y="368" type="curve"/>
      <point x="603" y="395"/>
      <point x="424" y="480"/>
      <point x="424" y="518" type="curve" smooth="yes"/>
      <point x="424" y="545"/>
      <point x="480" y="567"/>
      <point x="527" y="567" type="curve" smooth="yes"/>
      <point x="600" y="567"/>
      <point x="733" y="465"/>
      <point x="734" y="420" type="curve" smooth="yes"/>
      <point x="734" y="399"/>
      <point x="724" y="379"/>
    </contour>
  </outline>
</glyph>
<glyph name="equal" format="1">
  <advance width="566"/>
  <unicode hex="003D"/>
  <outline>
    <contour>
      <point x="64" y="320" type="curve" smooth="yes"/>
      <point x="485" y="320" type="line" smooth="yes"/>
      <point x="502" y="320"/>
      <point x="516" y="333"/>
      <point x="516" y="341" type="curve" smooth="yes"/>
      <point x="516" y="344"/>
      <point x="509" y="346"/>
      <point x="503" y="346" type="curve" smooth="yes"/>
      <point x="74" y="346" type="line" smooth="yes"/>
      <point x="56" y="346"/>
      <point x="50" y="331"/>
      <point x="50" y="326" type="curve" smooth="yes"/>
      <point x="50" y="323"/>
      <point x="57" y="320"/>
    </contour>
    <contour>
      <point x="64" y="149" type="curve" smooth="yes"/>
      <point x="485" y="149" type="line" smooth="yes"/>
      <point x="502" y="149"/>
      <point x="516" y="161"/>
      <point x="516" y="170" type="curve" smooth="yes"/>
      <point x="516" y="173"/>
      <point x="509" y="175"/>
      <point x="503" y="175" type="curve" smooth="yes"/>
      <point x="74" y="175" type="line" smooth="yes"/>
      <point x="56" y="175"/>
      <point x="50" y="160"/>
      <point x="50" y="155" type="curve" smooth="yes"/>
      <point x="50" y="152"/>
      <point x="57" y="149"/>
    </contour>
  </outline>
</glyph>
<glyph name="at" format="1">
  <advance width="1219"/>
  <unicode hex="0040"/>
  <outline>
    <contour>
      <point x="622" y="-148" type="curve" smooth="yes"/>
      <point x="806" y="-148"/>
      <point x="1047" y="-47"/>
      <point x="1047" y="-20" type="curve" smooth="yes"/>
      <point x="1047" y="-15"/>
      <point x="1043" y="-12"/>
      <point x="1034" y="-12" type="curve" smooth="yes"/>
      <point x="1028" y="-12"/>
      <point x="1020" y="-16"/>
      <point x="1011" y="-21" type="curve" smooth="yes"/>
      <point x="909" y="-83"/>
      <point x="748" y="-126"/>
      <point x="632" y="-126" type="curve" smooth="yes"/>
      <point x="355" y="-126"/>
      <point x="91" y="-7"/>
      <point x="91" y="209" type="curve" smooth="yes"/>
      <point x="91" y="422"/>
      <point x="353" y="546"/>
      <point x="646" y="546" type="curve" smooth="yes"/>
      <point x="924" y="546"/>
      <point x="1124" y="416"/>
      <point x="1124" y="258" type="curve" smooth="yes"/>
      <point x="1124" y="154"/>
      <point x="1049" y="83"/>
      <point x="952" y="83" type="curve" smooth="yes"/>
      <point x="935" y="83"/>
      <point x="930" y="98"/>
      <point x="930" y="115" type="curve" smooth="yes"/>
      <point x="930" y="125"/>
      <point x="932" y="136"/>
      <point x="933" y="146" type="curve"/>
      <point x="955" y="305" type="line" smooth="yes"/>
      <point x="957" y="323"/>
      <point x="969" y="367"/>
      <point x="977" y="395" type="curve"/>
      <point x="992" y="399"/>
      <point x="914" y="402"/>
      <point x="894" y="402" type="curve" smooth="yes"/>
      <point x="848" y="402"/>
      <point x="823" y="381"/>
      <point x="764" y="381" type="curve" smooth="yes"/>
      <point x="758" y="381"/>
      <point x="748" y="384"/>
      <point x="723" y="389" type="curve" smooth="yes"/>
      <point x="702" y="394"/>
      <point x="646" y="398"/>
      <point x="612" y="398" type="curve" smooth="yes"/>
      <point x="425" y="398"/>
      <point x="254" y="311"/>
      <point x="254" y="175" type="curve" smooth="yes"/>
      <point x="254" y="96"/>
      <point x="352" y="52"/>
      <point x="478" y="52" type="curve" smooth="yes"/>
      <point x="603" y="52"/>
      <point x="680" y="94"/>
      <point x="698" y="94" type="curve" smooth="yes"/>
      <point x="742" y="94"/>
      <point x="751" y="52"/>
      <point x="928" y="52" type="curve" smooth="yes"/>
      <point x="1045" y="52"/>
      <point x="1150" y="132"/>
      <point x="1150" y="267" type="curve" smooth="yes"/>
      <point x="1150" y="431"/>
      <point x="930" y="569"/>
      <point x="677" y="569" type="curve" smooth="yes"/>
      <point x="352" y="569"/>
      <point x="64" y="443"/>
      <point x="64" y="203" type="curve" smooth="yes"/>
      <point x="64" y="-4"/>
      <point x="320" y="-148"/>
    </contour>
    <contour>
      <point x="592" y="75" type="curve" smooth="yes"/>
      <point x="543" y="75"/>
      <point x="484" y="102"/>
      <point x="484" y="193" type="curve" smooth="yes"/>
      <point x="484" y="316"/>
      <point x="562" y="381"/>
      <point x="634" y="381" type="curve" smooth="yes"/>
      <point x="693" y="381"/>
      <point x="725" y="360"/>
      <point x="725" y="310" type="curve" smooth="yes"/>
      <point x="725" y="305"/>
      <point x="725" y="299"/>
      <point x="724" y="293" type="curve"/>
      <point x="706" y="166" type="line" smooth="yes"/>
      <point x="700" y="125"/>
      <point x="687" y="113"/>
      <point x="671" y="102" type="curve" smooth="yes"/>
      <point x="645" y="85"/>
      <point x="623" y="75"/>
    </contour>
  </outline>
</glyph>
<glyph name="A" format="1">
  <advance width="1073"/>
  <unicode hex="0041"/>
  <outline>
    <contour>
      <point x="24" y="-5" type="curve" smooth="yes"/>
      <point x="55" y="-5"/>
      <point x="116" y="-2"/>
      <point x="165" y="-2" type="curve" smooth="yes"/>
      <point x="168" y="-2"/>
      <point x="210" y="-3"/>
      <point x="227" y="-3" type="curve" smooth="yes"/>
      <point x="243" y="-3"/>
      <point x="254" y="-1"/>
      <point x="254" y="3" type="curve" smooth="yes"/>
      <point x="254" y="8"/>
      <point x="242" y="11"/>
      <point x="221" y="14" type="curve" smooth="yes"/>
      <point x="182" y="19"/>
      <point x="157" y="32"/>
      <point x="157" y="56" type="curve" smooth="yes"/>
      <point x="157" y="84"/>
      <point x="214" y="199"/>
      <point x="224" y="222" type="curve" smooth="yes"/>
      <point x="230" y="235"/>
      <point x="237" y="238"/>
      <point x="244" y="238" type="curve" smooth="yes"/>
      <point x="503" y="238" type="line" smooth="yes"/>
      <point x="524" y="238"/>
      <point x="531" y="237"/>
      <point x="534" y="229" type="curve" smooth="yes"/>
      <point x="552" y="184"/>
      <point x="588" y="87"/>
      <point x="588" y="61" type="curve" smooth="yes"/>
      <point x="588" y="39"/>
      <point x="569" y="22"/>
      <point x="523" y="16" type="curve" smooth="yes"/>
      <point x="502" y="14"/>
      <point x="484" y="10"/>
      <point x="484" y="5" type="curve" smooth="yes"/>
      <point x="484" y="0"/>
      <point x="508" y="-2"/>
      <point x="541" y="-2" type="curve" smooth="yes"/>
      <point x="589" y="-2"/>
      <point x="672" y="-1"/>
      <point x="747" y="-1" type="curve" smooth="yes"/>
      <point x="836" y="-1"/>
      <point x="966" y="-5"/>
      <point x="1022" y="-5" type="curve" smooth="yes"/>
      <point x="1055" y="-5"/>
      <point x="1079" y="-4"/>
      <point x="1079" y="1" type="curve" smooth="yes"/>
      <point x="1079" y="6"/>
      <point x="1067" y="11"/>
      <point x="1046" y="14" type="curve" smooth="yes"/>
      <point x="999" y="19"/>
      <point x="963" y="35"/>
      <point x="928" y="114" type="curve" smooth="yes"/>
      <point x="888" y="202"/>
      <point x="793" y="427"/>
      <point x="726" y="581" type="curve" smooth="yes"/>
      <point x="712" y="622"/>
      <point x="694" y="629"/>
      <point x="679" y="634" type="curve"/>
      <point x="674" y="636"/>
      <point x="658" y="637"/>
      <point x="653" y="635" type="curve"/>
      <point x="633" y="630"/>
      <point x="616" y="611"/>
      <point x="554" y="604" type="curve" smooth="yes"/>
      <point x="492" y="596"/>
      <point x="429" y="593"/>
      <point x="366" y="590" type="curve"/>
      <point x="364" y="570"/>
      <point x="358" y="554"/>
      <point x="350" y="536" type="curve" smooth="yes"/>
      <point x="271" y="364"/>
      <point x="216" y="245"/>
      <point x="134" y="95" type="curve" smooth="yes"/>
      <point x="101" y="30"/>
      <point x="69" y="19"/>
      <point x="34" y="14" type="curve" smooth="yes"/>
      <point x="9" y="12"/>
      <point x="-2" y="7"/>
      <point x="-2" y="2" type="curve" smooth="yes"/>
      <point x="-2" y="-2"/>
      <point x="9" y="-5"/>
    </contour>
    <contour>
      <point x="273" y="257" type="line" smooth="yes"/>
      <point x="258" y="257"/>
      <point x="249" y="257"/>
      <point x="249" y="263" type="curve" smooth="yes"/>
      <point x="249" y="265"/>
      <point x="250" y="268"/>
      <point x="251" y="271" type="curve"/>
      <point x="372" y="534" type="line" smooth="yes"/>
      <point x="379" y="547"/>
      <point x="385" y="554"/>
      <point x="389" y="554" type="curve" smooth="yes"/>
      <point x="397" y="554"/>
      <point x="403" y="545"/>
      <point x="409" y="533" type="curve" smooth="yes"/>
      <point x="513" y="271" type="line"/>
      <point x="514" y="267"/>
      <point x="515" y="263"/>
      <point x="515" y="261" type="curve" smooth="yes"/>
      <point x="515" y="257"/>
      <point x="510" y="257"/>
      <point x="499" y="257" type="curve" smooth="yes"/>
    </contour>
  </outline>
</glyph>
<glyph name="D" format="1">
  <advance width="1377"/>
  <unicode hex="0044"/>
  <outline>
    <contour>
      <point x="680" y="-7" type="curve" smooth="yes"/>
      <point x="1041" y="-7"/>
      <point x="1336" y="138"/>
      <point x="1336" y="316" type="curve" smooth="yes"/>
      <point x="1336" y="477"/>
      <point x="1134" y="609"/>
      <point x="621" y="609" type="curve" smooth="yes"/>
      <point x="571" y="609"/>
      <point x="380" y="601"/>
      <point x="299" y="601" type="curve" smooth="yes"/>
      <point x="207" y="601"/>
      <point x="185" y="603"/>
      <point x="89" y="603" type="curve" smooth="yes"/>
      <point x="57" y="603"/>
      <point x="34" y="601"/>
      <point x="34" y="595" type="curve" smooth="yes"/>
      <point x="34" y="589"/>
      <point x="45" y="587"/>
      <point x="69" y="585" type="curve" smooth="yes"/>
      <point x="129" y="580"/>
      <point x="140" y="570"/>
      <point x="140" y="528" type="curve" smooth="yes"/>
      <point x="140" y="92" type="line" smooth="yes"/>
      <point x="140" y="30"/>
      <point x="126" y="19"/>
      <point x="69" y="13" type="curve" smooth="yes"/>
      <point x="45" y="10"/>
      <point x="34" y="10"/>
      <point x="34" y="3" type="curve" smooth="yes"/>
      <point x="34" y="-3"/>
      <point x="57" y="-5"/>
      <point x="89" y="-5" type="curve" smooth="yes"/>
      <point x="189" y="-5"/>
      <point x="212" y="0"/>
      <point x="287" y="0" type="curve" smooth="yes"/>
      <point x="436" y="0"/>
      <point x="642" y="-7"/>
    </contour>
    <contour>
      <point x="659" y="14" type="curve" smooth="yes"/>
      <point x="548" y="14"/>
      <point x="471" y="30"/>
      <point x="471" y="112" type="curve" smooth="yes"/>
      <point x="471" y="528" type="line" smooth="yes"/>
      <point x="471" y="588"/>
      <point x="518" y="592"/>
      <point x="642" y="592" type="curve" smooth="yes"/>
      <point x="820" y="592"/>
      <point x="992" y="487"/>
      <point x="992" y="300" type="curve" smooth="yes"/>
      <point x="992" y="133"/>
      <point x="855" y="14"/>
    </contour>
  </outline>
</glyph>
<glyph name="F" format="1">
  <advance width="848"/>
  <unicode hex="0046"/>
  <outline>
    <contour>
      <point x="100" y="-5" type="curve" smooth="yes"/>
      <point x="206" y="-5"/>
      <point x="249" y="-1"/>
      <point x="344" y="2" type="curve" smooth="yes"/>
      <point x="419" y="-1"/>
      <point x="435" y="-5"/>
      <point x="540" y="-5" type="curve" smooth="yes"/>
      <point x="574" y="-5"/>
      <point x="596" y="-3"/>
      <point x="596" y="3" type="curve" smooth="yes"/>
      <point x="596" y="9"/>
      <point x="586" y="12"/>
      <point x="561" y="15" type="curve" smooth="yes"/>
      <point x="503" y="21"/>
      <point x="487" y="37"/>
      <point x="486" y="71" type="curve" smooth="yes"/>
      <point x="483" y="156"/>
      <point x="483" y="218"/>
      <point x="483" y="269" type="curve" smooth="yes"/>
      <point x="483" y="287"/>
      <point x="495" y="293"/>
      <point x="510" y="294" type="curve" smooth="yes"/>
      <point x="539" y="296"/>
      <point x="567" y="296"/>
      <point x="598" y="296" type="curve" smooth="yes"/>
      <point x="622" y="296"/>
      <point x="655" y="295"/>
      <point x="678" y="295" type="curve" smooth="yes"/>
      <point x="699" y="295"/>
      <point x="711" y="284"/>
      <point x="721" y="247" type="curve" smooth="yes"/>
      <point x="725" y="232"/>
      <point x="733" y="220"/>
      <point x="742" y="220" type="curve" smooth="yes"/>
      <point x="750" y="220"/>
      <point x="751" y="228"/>
      <point x="751" y="237" type="curve"/>
      <point x="749" y="262"/>
      <point x="748" y="289"/>
      <point x="748" y="309" type="curve" smooth="yes"/>
      <point x="748" y="325"/>
      <point x="749" y="348"/>
      <point x="751" y="369" type="curve" smooth="yes"/>
      <point x="752" y="378"/>
      <point x="746" y="385"/>
      <point x="740" y="385" type="curve" smooth="yes"/>
      <point x="733" y="385"/>
      <point x="725" y="372"/>
      <point x="722" y="365" type="curve" smooth="yes"/>
      <point x="713" y="332"/>
      <point x="698" y="315"/>
      <point x="667" y="315" type="curve" smooth="yes"/>
      <point x="617" y="315"/>
      <point x="552" y="312"/>
      <point x="495" y="312" type="curve" smooth="yes"/>
      <point x="486" y="312"/>
      <point x="483" y="323"/>
      <point x="483" y="334" type="curve"/>
      <point x="482" y="360"/>
      <point x="482" y="384"/>
      <point x="482" y="417" type="curve" smooth="yes"/>
      <point x="482" y="452"/>
      <point x="482" y="506"/>
      <point x="483" y="533" type="curve" smooth="yes"/>
      <point x="484" y="561"/>
      <point x="489" y="582"/>
      <point x="520" y="582" type="curve" smooth="yes"/>
      <point x="703" y="582" type="line" smooth="yes"/>
      <point x="738" y="582"/>
      <point x="756" y="573"/>
      <point x="771" y="550" type="curve" smooth="yes"/>
      <point x="780" y="538"/>
      <point x="788" y="514"/>
      <point x="795" y="489" type="curve" smooth="yes"/>
      <point x="797" y="480"/>
      <point x="802" y="475"/>
      <point x="809" y="475" type="curve" smooth="yes"/>
      <point x="814" y="475"/>
      <point x="818" y="483"/>
      <point x="818" y="495" type="curve" smooth="yes"/>
      <point x="818" y="511"/>
      <point x="814" y="574"/>
      <point x="810" y="600" type="curve" smooth="yes"/>
      <point x="808" y="607"/>
      <point x="791" y="609"/>
      <point x="779" y="609" type="curve" smooth="yes"/>
      <point x="744" y="609"/>
      <point x="686" y="600"/>
      <point x="611" y="600" type="curve"/>
      <point x="539" y="600"/>
      <point x="446" y="600"/>
      <point x="377" y="600" type="curve" smooth="yes"/>
      <point x="266" y="600"/>
      <point x="211" y="603"/>
      <point x="101" y="603" type="curve" smooth="yes"/>
      <point x="71" y="603"/>
      <point x="51" y="601"/>
      <point x="50" y="596" type="curve" smooth="yes"/>
      <point x="50" y="590"/>
      <point x="61" y="586"/>
      <point x="85" y="583" type="curve" smooth="yes"/>
      <point x="139" y="578"/>
      <point x="152" y="562"/>
      <point x="152" y="520" type="curve" smooth="yes"/>
      <point x="152" y="70" type="line" smooth="yes"/>
      <point x="152" y="32"/>
      <point x="132" y="20"/>
      <point x="79" y="14" type="curve" smooth="yes"/>
      <point x="63" y="12"/>
      <point x="43" y="8"/>
      <point x="43" y="2" type="curve" smooth="yes"/>
      <point x="43" y="-3"/>
      <point x="67" y="-5"/>
    </contour>
  </outline>
</glyph>
<glyph name="G" format="1">
  <advance width="1258"/>
  <unicode hex="0047"/>
  <outline>
    <contour>
      <point x="693" y="-15" type="curve" smooth="yes"/>
      <point x="995" y="-15"/>
      <point x="1116" y="45"/>
      <point x="1143" y="47" type="curve" smooth="yes"/>
      <point x="1159" y="49"/>
      <point x="1159" y="60"/>
      <point x="1159" y="65" type="curve" smooth="yes"/>
      <point x="1159" y="70"/>
      <point x="1148" y="74"/>
      <point x="1144" y="81" type="curve"/>
      <point x="1140" y="86"/>
      <point x="1137" y="89"/>
      <point x="1137" y="96" type="curve" smooth="yes"/>
      <point x="1137" y="121" type="line" smooth="yes"/>
      <point x="1137" y="144"/>
      <point x="1140" y="175"/>
      <point x="1142" y="197" type="curve" smooth="yes"/>
      <point x="1143" y="228"/>
      <point x="1155" y="245"/>
      <point x="1192" y="248" type="curve"/>
      <point x="1199" y="249"/>
      <point x="1216" y="255"/>
      <point x="1216" y="259" type="curve" smooth="yes"/>
      <point x="1216" y="265"/>
      <point x="1199" y="267"/>
      <point x="1193" y="267" type="curve" smooth="yes"/>
      <point x="1113" y="267"/>
      <point x="1072" y="263"/>
      <point x="995" y="263" type="curve" smooth="yes"/>
      <point x="873" y="263"/>
      <point x="823" y="267"/>
      <point x="714" y="267" type="curve" smooth="yes"/>
      <point x="708" y="267"/>
      <point x="692" y="265"/>
      <point x="692" y="258" type="curve" smooth="yes"/>
      <point x="692" y="253"/>
      <point x="707" y="248"/>
      <point x="714" y="248" type="curve" smooth="yes"/>
      <point x="743" y="247"/>
      <point x="797" y="244"/>
      <point x="816" y="232" type="curve" smooth="yes"/>
      <point x="823" y="229"/>
      <point x="826" y="215"/>
      <point x="826" y="191" type="curve" smooth="yes"/>
      <point x="826" y="157"/>
      <point x="824" y="140"/>
      <point x="824" y="123" type="curve" smooth="yes"/>
      <point x="824" y="88"/>
      <point x="814" y="61"/>
      <point x="802" y="45" type="curve" smooth="yes"/>
      <point x="788" y="31"/>
      <point x="756" y="7"/>
      <point x="693" y="7" type="curve" smooth="yes"/>
      <point x="543" y="7"/>
      <point x="398" y="115"/>
      <point x="398" y="299" type="curve" smooth="yes"/>
      <point x="398" y="451"/>
      <point x="561" y="589"/>
      <point x="801" y="589" type="curve" smooth="yes"/>
      <point x="959" y="589"/>
      <point x="1046" y="557"/>
      <point x="1076" y="535" type="curve" smooth="yes"/>
      <point x="1095" y="517"/>
      <point x="1102" y="490"/>
      <point x="1109" y="466" type="curve"/>
      <point x="1113" y="453"/>
      <point x="1118" y="438"/>
      <point x="1132" y="438" type="curve" smooth="yes"/>
      <point x="1140" y="438"/>
      <point x="1146" y="447"/>
      <point x="1146" y="456" type="curve" smooth="yes"/>
      <point x="1146" y="480"/>
      <point x="1141" y="535"/>
      <point x="1134" y="571" type="curve" smooth="yes"/>
      <point x="1133" y="577"/>
      <point x="1130" y="579"/>
      <point x="1123" y="582" type="curve" smooth="yes"/>
      <point x="1082" y="594"/>
      <point x="894" y="612"/>
      <point x="818" y="612" type="curve" smooth="yes"/>
      <point x="385" y="612"/>
      <point x="53" y="499"/>
      <point x="53" y="286" type="curve" smooth="yes"/>
      <point x="53" y="125"/>
      <point x="336" y="-15"/>
    </contour>
  </outline>
</glyph>
<glyph name="J" format="1">
  <advance width="599"/>
  <unicode hex="004A"/>
  <outline>
    <contour>
      <point x="111" y="-200" type="curve" smooth="yes"/>
      <point x="190" y="-200"/>
      <point x="251" y="-178"/>
      <point x="309" y="-146" type="curve" smooth="yes"/>
      <point x="376" y="-107"/>
      <point x="471" y="-37"/>
      <point x="471" y="57" type="curve" smooth="yes"/>
      <point x="470" y="535" type="line" smooth="yes"/>
      <point x="470" y="566"/>
      <point x="498" y="576"/>
      <point x="553" y="582" type="curve" smooth="yes"/>
      <point x="578" y="584"/>
      <point x="589" y="589"/>
      <point x="589" y="595" type="curve" smooth="yes"/>
      <point x="589" y="600"/>
      <point x="576" y="602"/>
      <point x="558" y="602" type="curve" smooth="yes"/>
      <point x="440" y="602"/>
      <point x="411" y="600"/>
      <point x="316" y="600" type="curve" smooth="yes"/>
      <point x="216" y="600"/>
      <point x="179" y="602"/>
      <point x="62" y="602" type="curve" smooth="yes"/>
      <point x="44" y="602"/>
      <point x="31" y="600"/>
      <point x="31" y="595" type="curve" smooth="yes"/>
      <point x="31" y="589"/>
      <point x="41" y="584"/>
      <point x="67" y="582" type="curve" smooth="yes"/>
      <point x="122" y="576"/>
      <point x="140" y="566"/>
      <point x="140" y="535" type="curve" smooth="yes"/>
      <point x="140" y="9" type="line" smooth="yes"/>
      <point x="140" y="-103"/>
      <point x="107" y="-173"/>
      <point x="49" y="-173" type="curve" smooth="yes"/>
      <point x="25" y="-173"/>
      <point x="7" y="-162"/>
      <point x="-12" y="-135" type="curve" smooth="yes"/>
      <point x="-28" y="-113"/>
      <point x="-44" y="-104"/>
      <point x="-61" y="-104" type="curve" smooth="yes"/>
      <point x="-76" y="-104"/>
      <point x="-99" y="-127"/>
      <point x="-99" y="-150" type="curve" smooth="yes"/>
      <point x="-99" y="-182"/>
      <point x="-32" y="-200"/>
    </contour>
  </outline>
</glyph>
<glyph name="M" format="1">
  <advance width="1552"/>
  <unicode hex="004D"/>
  <outline>
    <contour>
      <point x="57" y="-5" type="curve" smooth="yes"/>
      <point x="116" y="-5"/>
      <point x="117" y="0"/>
      <point x="157" y="0" type="curve" smooth="yes"/>
      <point x="196" y="0"/>
      <point x="199" y="-5"/>
      <point x="257" y="-5" type="curve" smooth="yes"/>
      <point x="275" y="-5"/>
      <point x="288" y="-3"/>
      <point x="288" y="2" type="curve" smooth="yes"/>
      <point x="288" y="8"/>
      <point x="277" y="11"/>
      <point x="252" y="14" type="curve" smooth="yes"/>
      <point x="196" y="19"/>
      <point x="170" y="38"/>
      <point x="170" y="80" type="curve" smooth="yes"/>
      <point x="172" y="220"/>
      <point x="192" y="361"/>
      <point x="208" y="482" type="curve" smooth="yes"/>
      <point x="208" y="489"/>
      <point x="218" y="489"/>
      <point x="221" y="482" type="curve" smooth="yes"/>
      <point x="301" y="323"/>
      <point x="395" y="136"/>
      <point x="446" y="27" type="curve" smooth="yes"/>
      <point x="468" y="-30"/>
      <point x="720" y="-55"/>
      <point x="758" y="23" type="curve" smooth="yes"/>
      <point x="1025" y="461" type="line" smooth="yes"/>
      <point x="1032" y="474"/>
      <point x="1041" y="475"/>
      <point x="1043" y="461" type="curve"/>
      <point x="1051" y="345"/>
      <point x="1058" y="221"/>
      <point x="1058" y="59" type="curve" smooth="yes"/>
      <point x="1058" y="29"/>
      <point x="1045" y="17"/>
      <point x="1002" y="14" type="curve" smooth="yes"/>
      <point x="976" y="11"/>
      <point x="965" y="8"/>
      <point x="965" y="2" type="curve" smooth="yes"/>
      <point x="965" y="-3"/>
      <point x="989" y="-5"/>
      <point x="1022" y="-5" type="curve" smooth="yes"/>
      <point x="1126" y="-5"/>
      <point x="1146" y="0"/>
      <point x="1226" y="0" type="curve" smooth="yes"/>
      <point x="1316" y="0"/>
      <point x="1349" y="-5"/>
      <point x="1453" y="-5" type="curve" smooth="yes"/>
      <point x="1486" y="-5"/>
      <point x="1510" y="-3"/>
      <point x="1510" y="2" type="curve" smooth="yes"/>
      <point x="1510" y="8"/>
      <point x="1499" y="11"/>
      <point x="1473" y="14" type="curve" smooth="yes"/>
      <point x="1419" y="19"/>
      <point x="1392" y="33"/>
      <point x="1390" y="58" type="curve" smooth="yes"/>
      <point x="1383" y="230"/>
      <point x="1368" y="352"/>
      <point x="1368" y="539" type="curve" smooth="yes"/>
      <point x="1368" y="562"/>
      <point x="1377" y="571"/>
      <point x="1396" y="575" type="curve" smooth="yes"/>
      <point x="1417" y="580"/>
      <point x="1444" y="585"/>
      <point x="1459" y="588" type="curve" smooth="yes"/>
      <point x="1482" y="593"/>
      <point x="1489" y="595"/>
      <point x="1489" y="601" type="curve" smooth="yes"/>
      <point x="1489" y="606"/>
      <point x="1451" y="606"/>
      <point x="1436" y="606" type="curve" smooth="yes"/>
      <point x="1379" y="606"/>
      <point x="1253" y="598"/>
      <point x="1154" y="598" type="curve" smooth="yes"/>
      <point x="1065" y="598" type="line" smooth="yes"/>
      <point x="1052" y="598"/>
      <point x="1044" y="593"/>
      <point x="1039" y="585" type="curve" smooth="yes"/>
      <point x="1035" y="563"/>
      <point x="1024" y="515"/>
      <point x="1017" y="491" type="curve"/>
      <point x="784" y="103" type="line" smooth="yes"/>
      <point x="779" y="94"/>
      <point x="770" y="97"/>
      <point x="765" y="106" type="curve" smooth="yes"/>
      <point x="570" y="506" type="line" smooth="yes"/>
      <point x="559" y="534"/>
      <point x="553" y="556"/>
      <point x="545" y="581" type="curve" smooth="yes"/>
      <point x="538" y="591"/>
      <point x="520" y="597"/>
      <point x="497" y="597" type="curve" smooth="yes"/>
      <point x="433" y="597"/>
      <point x="197" y="605"/>
      <point x="133" y="605" type="curve" smooth="yes"/>
      <point x="84" y="605"/>
      <point x="51" y="605"/>
      <point x="51" y="599" type="curve" smooth="yes"/>
      <point x="51" y="594"/>
      <point x="61" y="590"/>
      <point x="76" y="588" type="curve" smooth="yes"/>
      <point x="118" y="583"/>
      <point x="143" y="581"/>
      <point x="162" y="569" type="curve" smooth="yes"/>
      <point x="175" y="561"/>
      <point x="177" y="551"/>
      <point x="177" y="538" type="curve" smooth="yes"/>
      <point x="179" y="527"/>
      <point x="178" y="514"/>
      <point x="178" y="500" type="curve" smooth="yes"/>
      <point x="178" y="404"/>
      <point x="162" y="260"/>
      <point x="137" y="78" type="curve" smooth="yes"/>
      <point x="130" y="33"/>
      <point x="112" y="19"/>
      <point x="62" y="13" type="curve" smooth="yes"/>
      <point x="37" y="10"/>
      <point x="26" y="8"/>
      <point x="26" y="2" type="curve" smooth="yes"/>
      <point x="26" y="-3"/>
      <point x="39" y="-5"/>
    </contour>
  </outline>
</glyph>
<glyph name="O" format="1">
  <advance width="1384"/>
  <unicode hex="004F"/>
  <outline>
    <contour>
      <point x="684" y="-14" type="curve" smooth="yes"/>
      <point x="1106" y="-14"/>
      <point x="1332" y="130"/>
      <point x="1332" y="309" type="curve" smooth="yes"/>
      <point x="1332" y="504"/>
      <point x="1036" y="614"/>
      <point x="702" y="614" type="curve" smooth="yes"/>
      <point x="267" y="614"/>
      <point x="53" y="470"/>
      <point x="53" y="291" type="curve" smooth="yes"/>
      <point x="53" y="96"/>
      <point x="337" y="-14"/>
    </contour>
    <contour>
      <point x="705" y="7" type="curve" smooth="yes"/>
      <point x="509" y="7"/>
      <point x="395" y="153"/>
      <point x="395" y="339" type="curve" smooth="yes"/>
      <point x="395" y="490"/>
      <point x="496" y="591"/>
      <point x="678" y="591" type="curve" smooth="yes"/>
      <point x="879" y="591"/>
      <point x="989" y="443"/>
      <point x="989" y="262" type="curve" smooth="yes"/>
      <point x="989" y="112"/>
      <point x="889" y="7"/>
    </contour>
  </outline>
</glyph>
<glyph name="P" format="1">
  <advance width="1134"/>
  <unicode hex="0050"/>
  <outline>
    <contour>
      <point x="84" y="-5" type="curve" smooth="yes"/>
      <point x="191" y="-5"/>
      <point x="237" y="2"/>
      <point x="333" y="2" type="curve" smooth="yes"/>
      <point x="404" y="2"/>
      <point x="415" y="-5"/>
      <point x="522" y="-5" type="curve" smooth="yes"/>
      <point x="555" y="-5"/>
      <point x="579" y="-2"/>
      <point x="579" y="2" type="curve" smooth="yes"/>
      <point x="579" y="8"/>
      <point x="568" y="12"/>
      <point x="543" y="14" type="curve" smooth="yes"/>
      <point x="479" y="19"/>
      <point x="471" y="36"/>
      <point x="471" y="100" type="curve" smooth="yes"/>
      <point x="471" y="547" type="line" smooth="yes"/>
      <point x="471" y="579"/>
      <point x="505" y="592"/>
      <point x="554" y="592" type="curve" smooth="yes"/>
      <point x="678" y="592"/>
      <point x="772" y="548"/>
      <point x="772" y="436" type="curve" smooth="yes"/>
      <point x="772" y="318"/>
      <point x="712" y="254"/>
      <point x="589" y="254" type="curve" smooth="yes"/>
      <point x="567" y="254"/>
      <point x="544" y="256"/>
      <point x="538" y="256" type="curve" smooth="yes"/>
      <point x="531" y="256"/>
      <point x="522" y="253"/>
      <point x="522" y="246" type="curve" smooth="yes"/>
      <point x="522" y="238"/>
      <point x="574" y="233"/>
      <point x="659" y="233" type="curve" smooth="yes"/>
      <point x="968" y="233"/>
      <point x="1105" y="329"/>
      <point x="1105" y="443" type="curve" smooth="yes"/>
      <point x="1105" y="547"/>
      <point x="932" y="608"/>
      <point x="632" y="608" type="curve" smooth="yes"/>
      <point x="580" y="608"/>
      <point x="499" y="602"/>
      <point x="424" y="602" type="curve" smooth="yes"/>
      <point x="303" y="602"/>
      <point x="293" y="603"/>
      <point x="129" y="603" type="curve" smooth="yes"/>
      <point x="77" y="603"/>
      <point x="41" y="600"/>
      <point x="41" y="595" type="curve" smooth="yes"/>
      <point x="41" y="592"/>
      <point x="52" y="587"/>
      <point x="76" y="585" type="curve" smooth="yes"/>
      <point x="133" y="581"/>
      <point x="141" y="563"/>
      <point x="141" y="503" type="curve" smooth="yes"/>
      <point x="141" y="89" type="line" smooth="yes"/>
      <point x="141" y="27"/>
      <point x="127" y="17"/>
      <point x="63" y="13" type="curve" smooth="yes"/>
      <point x="39" y="11"/>
      <point x="28" y="8"/>
      <point x="28" y="2" type="curve" smooth="yes"/>
      <point x="28" y="-2"/>
      <point x="51" y="-5"/>
    </contour>
  </outline>
</glyph>
<glyph name="Q" format="1">
  <advance width="1384"/>
  <unicode hex="0051"/>
  <outline>
    <contour>
      <point x="1374" y="-268" type="curve" smooth="yes"/>
      <point x="1453" y="-268"/>
      <point x="1533" y="-251"/>
      <point x="1608" y="-210" type="curve" smooth="yes"/>
      <point x="1635" y="-195"/>
      <point x="1640" y="-189"/>
      <point x="1639" y="-174" type="curve" smooth="yes"/>
      <point x="1638" y="-167"/>
      <point x="1629" y="-165"/>
      <point x="1618" y="-166" type="curve" smooth="yes"/>
      <point x="1606" y="-168"/>
      <point x="1593" y="-172"/>
      <point x="1582" y="-176" type="curve"/>
      <point x="1564" y="-184"/>
      <point x="1520" y="-190"/>
      <point x="1472" y="-190" type="curve" smooth="yes"/>
      <point x="1367" y="-190"/>
      <point x="1290" y="-170"/>
      <point x="1197" y="-117" type="curve" smooth="yes"/>
      <point x="1127" y="-76"/>
      <point x="1072" y="-38"/>
      <point x="1017" y="10" type="curve"/>
      <point x="1014" y="13"/>
      <point x="1013" y="16"/>
      <point x="1013" y="19" type="curve" smooth="yes"/>
      <point x="1013" y="21"/>
      <point x="1014" y="24"/>
      <point x="1023" y="27" type="curve" smooth="yes"/>
      <point x="1224" y="78"/>
      <point x="1332" y="187"/>
      <point x="1332" y="309" type="curve" smooth="yes"/>
      <point x="1332" y="504"/>
      <point x="1036" y="614"/>
      <point x="702" y="614" type="curve" smooth="yes"/>
      <point x="267" y="614"/>
      <point x="53" y="470"/>
      <point x="53" y="291" type="curve" smooth="yes"/>
      <point x="53" y="146"/>
      <point x="212" y="49"/>
      <point x="434" y="7" type="curve" smooth="yes"/>
      <point x="582" y="-28"/>
      <point x="666" y="-60"/>
      <point x="739" y="-93" type="curve" smooth="yes"/>
      <point x="828" y="-134"/>
      <point x="874" y="-156"/>
      <point x="955" y="-186" type="curve" smooth="yes"/>
      <point x="1110" y="-239"/>
      <point x="1193" y="-268"/>
    </contour>
    <contour>
      <point x="705" y="7" type="curve" smooth="yes"/>
      <point x="509" y="7"/>
      <point x="395" y="153"/>
      <point x="395" y="339" type="curve" smooth="yes"/>
      <point x="395" y="490"/>
      <point x="496" y="591"/>
      <point x="678" y="591" type="curve" smooth="yes"/>
      <point x="879" y="591"/>
      <point x="989" y="443"/>
      <point x="989" y="262" type="curve" smooth="yes"/>
      <point x="989" y="112"/>
      <point x="889" y="7"/>
    </contour>
  </outline>
</glyph>
<glyph name="S" format="1">
  <advance width="769"/>
  <unicode hex="0053"/>
  <outline>
    <contour>
      <point x="349" y="-16" type="curve" smooth="yes"/>
      <point x="576" y="-16"/>
      <point x="725" y="73"/>
      <point x="725" y="228" type="curve" smooth="yes"/>
      <point x="725" y="333"/>
      <point x="638" y="387"/>
      <point x="461" y="420" type="curve" smooth="yes"/>
      <point x="263" y="455"/>
      <point x="207" y="477"/>
      <point x="207" y="519" type="curve" smooth="yes"/>
      <point x="207" y="554"/>
      <point x="256" y="594"/>
      <point x="410" y="594" type="curve" smooth="yes"/>
      <point x="568" y="594"/>
      <point x="632" y="574"/>
      <point x="675" y="471" type="curve" smooth="yes"/>
      <point x="677" y="465"/>
      <point x="688" y="458"/>
      <point x="699" y="458" type="curve" smooth="yes"/>
      <point x="707" y="458"/>
      <point x="713" y="461"/>
      <point x="713" y="468" type="curve" smooth="yes"/>
      <point x="713" y="498"/>
      <point x="699" y="544"/>
      <point x="689" y="570" type="curve" smooth="yes"/>
      <point x="686" y="580"/>
      <point x="668" y="590"/>
      <point x="651" y="594" type="curve" smooth="yes"/>
      <point x="613" y="602"/>
      <point x="559" y="614"/>
      <point x="459" y="614" type="curve" smooth="yes"/>
      <point x="160" y="614"/>
      <point x="77" y="520"/>
      <point x="77" y="402" type="curve" smooth="yes"/>
      <point x="77" y="270"/>
      <point x="201" y="226"/>
      <point x="403" y="199" type="curve" smooth="yes"/>
      <point x="571" y="177"/>
      <point x="594" y="151"/>
      <point x="594" y="106" type="curve" smooth="yes"/>
      <point x="594" y="61"/>
      <point x="532" y="3"/>
      <point x="413" y="3" type="curve" smooth="yes"/>
      <point x="237" y="3"/>
      <point x="136" y="19"/>
      <point x="79" y="160" type="curve" smooth="yes"/>
      <point x="76" y="166"/>
      <point x="69" y="171"/>
      <point x="64" y="171" type="curve" smooth="yes"/>
      <point x="56" y="171"/>
      <point x="47" y="166"/>
      <point x="47" y="157" type="curve"/>
      <point x="48" y="128"/>
      <point x="53" y="77"/>
      <point x="64" y="49" type="curve" smooth="yes"/>
      <point x="67" y="41"/>
      <point x="77" y="33"/>
      <point x="86" y="29" type="curve"/>
      <point x="153" y="0"/>
      <point x="252" y="-16"/>
    </contour>
  </outline>
</glyph>
<glyph name="T" format="1">
  <advance width="1024"/>
  <unicode hex="0054"/>
  <outline>
    <contour>
      <point x="282" y="-5" type="curve" smooth="yes"/>
      <point x="384" y="-5"/>
      <point x="428" y="-2"/>
      <point x="521" y="-2" type="curve" smooth="yes"/>
      <point x="607" y="-2"/>
      <point x="641" y="-5"/>
      <point x="743" y="-5" type="curve" smooth="yes"/>
      <point x="775" y="-5"/>
      <point x="797" y="-3"/>
      <point x="797" y="2" type="curve" smooth="yes"/>
      <point x="797" y="8"/>
      <point x="787" y="11"/>
      <point x="762" y="13" type="curve" smooth="yes"/>
      <point x="704" y="20"/>
      <point x="676" y="32"/>
      <point x="676" y="73" type="curve" smooth="yes"/>
      <point x="676" y="473" type="line" smooth="yes"/>
      <point x="676" y="570"/>
      <point x="684" y="576"/>
      <point x="726" y="576" type="curve" smooth="yes"/>
      <point x="884" y="576" type="line" smooth="yes"/>
      <point x="947" y="576"/>
      <point x="969" y="554"/>
      <point x="974" y="521" type="curve" smooth="yes"/>
      <point x="979" y="490"/>
      <point x="982" y="472"/>
      <point x="992" y="472" type="curve" smooth="yes"/>
      <point x="1002" y="472"/>
      <point x="1008" y="492"/>
      <point x="1008" y="507" type="curve" smooth="yes"/>
      <point x="1008" y="519" type="line" smooth="yes"/>
      <point x="1008" y="545"/>
      <point x="1012" y="541"/>
      <point x="1019" y="578" type="curve" smooth="yes"/>
      <point x="1020" y="584"/>
      <point x="1023" y="599"/>
      <point x="1023" y="606" type="curve" smooth="yes"/>
      <point x="1023" y="616"/>
      <point x="1020" y="629"/>
      <point x="1015" y="629" type="curve" smooth="yes"/>
      <point x="1000" y="629"/>
      <point x="993" y="617"/>
      <point x="977" y="609" type="curve" smooth="yes"/>
      <point x="956" y="598"/>
      <point x="930" y="594"/>
      <point x="885" y="594" type="curve" smooth="yes"/>
      <point x="167" y="594" type="line" smooth="yes"/>
      <point x="141" y="594"/>
      <point x="110" y="600"/>
      <point x="103" y="614" type="curve" smooth="yes"/>
      <point x="97" y="625"/>
      <point x="85" y="646"/>
      <point x="80" y="646" type="curve" smooth="yes"/>
      <point x="75" y="646"/>
      <point x="65" y="645"/>
      <point x="62" y="623" type="curve" smooth="yes"/>
      <point x="56" y="581"/>
      <point x="50" y="556"/>
      <point x="30" y="518" type="curve" smooth="yes"/>
      <point x="27" y="512"/>
      <point x="24" y="502"/>
      <point x="24" y="495" type="curve" smooth="yes"/>
      <point x="24" y="488"/>
      <point x="28" y="482"/>
      <point x="33" y="482" type="curve" smooth="yes"/>
      <point x="47" y="482"/>
      <point x="66" y="506"/>
      <point x="77" y="529" type="curve" smooth="yes"/>
      <point x="93" y="561"/>
      <point x="124" y="576"/>
      <point x="156" y="576" type="curve" smooth="yes"/>
      <point x="260" y="576" type="line" smooth="yes"/>
      <point x="291" y="576"/>
      <point x="308" y="576"/>
      <point x="326" y="571" type="curve" smooth="yes"/>
      <point x="340" y="567"/>
      <point x="345" y="547"/>
      <point x="345" y="469" type="curve" smooth="yes"/>
      <point x="345" y="72" type="line" smooth="yes"/>
      <point x="345" y="31"/>
      <point x="316" y="19"/>
      <point x="263" y="13" type="curve" smooth="yes"/>
      <point x="238" y="10"/>
      <point x="227" y="7"/>
      <point x="227" y="2" type="curve" smooth="yes"/>
      <point x="227" y="-3"/>
      <point x="250" y="-5"/>
    </contour>
  </outline>
</glyph>
<glyph name="Y" format="1">
  <advance width="920"/>
  <unicode hex="0059"/>
  <outline>
    <contour>
      <point x="243" y="-5" type="curve" smooth="yes"/>
      <point x="344" y="-5"/>
      <point x="389" y="-2"/>
      <point x="483" y="-2" type="curve" smooth="yes"/>
      <point x="569" y="-2"/>
      <point x="601" y="-5"/>
      <point x="703" y="-5" type="curve" smooth="yes"/>
      <point x="734" y="-5"/>
      <point x="757" y="-3"/>
      <point x="757" y="1" type="curve" smooth="yes"/>
      <point x="757" y="6"/>
      <point x="746" y="9"/>
      <point x="721" y="11" type="curve" smooth="yes"/>
      <point x="668" y="16"/>
      <point x="637" y="33"/>
      <point x="637" y="66" type="curve" smooth="yes"/>
      <point x="637" y="253" type="line" smooth="yes"/>
      <point x="637" y="290"/>
      <point x="636" y="297"/>
      <point x="666" y="337" type="curve" smooth="yes"/>
      <point x="718" y="403"/>
      <point x="740" y="432"/>
      <point x="796" y="505" type="curve" smooth="yes"/>
      <point x="835" y="555"/>
      <point x="859" y="574"/>
      <point x="895" y="582" type="curve" smooth="yes"/>
      <point x="920" y="587"/>
      <point x="949" y="591"/>
      <point x="949" y="596" type="curve" smooth="yes"/>
      <point x="949" y="601"/>
      <point x="936" y="603"/>
      <point x="917" y="603" type="curve" smooth="yes"/>
      <point x="892" y="603"/>
      <point x="851" y="601"/>
      <point x="806" y="601" type="curve" smooth="yes"/>
      <point x="774" y="601"/>
      <point x="756" y="602"/>
      <point x="723" y="602" type="curve" smooth="yes"/>
      <point x="704" y="602"/>
      <point x="691" y="600"/>
      <point x="691" y="595" type="curve" smooth="yes"/>
      <point x="691" y="591"/>
      <point x="710" y="586"/>
      <point x="725" y="584" type="curve" smooth="yes"/>
      <point x="762" y="582"/>
      <point x="785" y="572"/>
      <point x="784" y="549" type="curve" smooth="yes"/>
      <point x="784" y="540"/>
      <point x="779" y="526"/>
      <point x="767" y="511" type="curve" smooth="yes"/>
      <point x="730" y="459"/>
      <point x="695" y="404"/>
      <point x="661" y="362" type="curve" smooth="yes"/>
      <point x="640" y="336"/>
      <point x="630" y="317"/>
      <point x="621" y="317" type="curve" smooth="yes"/>
      <point x="614" y="317"/>
      <point x="605" y="329"/>
      <point x="588" y="353" type="curve" smooth="yes"/>
      <point x="463" y="537" type="line" smooth="yes"/>
      <point x="454" y="549"/>
      <point x="448" y="557"/>
      <point x="448" y="566" type="curve" smooth="yes"/>
      <point x="448" y="577"/>
      <point x="468" y="581"/>
      <point x="497" y="584" type="curve" smooth="yes"/>
      <point x="523" y="587"/>
      <point x="535" y="590"/>
      <point x="535" y="595" type="curve" smooth="yes"/>
      <point x="535" y="600"/>
      <point x="510" y="601"/>
      <point x="473" y="601" type="curve" smooth="yes"/>
      <point x="428" y="601"/>
      <point x="371" y="600"/>
      <point x="304" y="600" type="curve" smooth="yes"/>
      <point x="207" y="600"/>
      <point x="126" y="602"/>
      <point x="62" y="602" type="curve" smooth="yes"/>
      <point x="26" y="602"/>
      <point x="0" y="600"/>
      <point x="0" y="596" type="curve" smooth="yes"/>
      <point x="0" y="590"/>
      <point x="13" y="590"/>
      <point x="40" y="583" type="curve" smooth="yes"/>
      <point x="74" y="575"/>
      <point x="104" y="538"/>
      <point x="121" y="517" type="curve" smooth="yes"/>
      <point x="279" y="304" type="line"/>
      <point x="285" y="295"/>
      <point x="307" y="261"/>
      <point x="307" y="236" type="curve" smooth="yes"/>
      <point x="307" y="66" type="line" smooth="yes"/>
      <point x="307" y="31"/>
      <point x="277" y="16"/>
      <point x="224" y="11" type="curve" smooth="yes"/>
      <point x="199" y="9"/>
      <point x="189" y="6"/>
      <point x="189" y="1" type="curve" smooth="yes"/>
      <point x="189" y="-3"/>
      <point x="211" y="-5"/>
    </contour>
  </outline>
</glyph>
<glyph name="bracketleft" format="1">
  <advance width="452"/>
  <unicode hex="005B"/>
  <outline>
    <contour>
      <point x="141" y="-200" type="curve" smooth="yes"/>
      <point x="406" y="-200" type="line" smooth="yes"/>
      <point x="418" y="-200"/>
      <point x="432" y="-198"/>
      <point x="432" y="-191" type="curve" smooth="yes"/>
      <point x="432" y="-184"/>
      <point x="419" y="-182"/>
      <point x="406" y="-181" type="curve"/>
      <point x="293" y="-174" type="line" smooth="yes"/>
      <point x="281" y="-174"/>
      <point x="270" y="-165"/>
      <point x="270" y="-135" type="curve" smooth="yes"/>
      <point x="270" y="647" type="line" smooth="yes"/>
      <point x="270" y="672"/>
      <point x="279" y="679"/>
      <point x="293" y="681" type="curve" smooth="yes"/>
      <point x="406" y="684" type="line" smooth="yes"/>
      <point x="419" y="685"/>
      <point x="432" y="687"/>
      <point x="432" y="693" type="curve" smooth="yes"/>
      <point x="432" y="699"/>
      <point x="423" y="701"/>
      <point x="414" y="701" type="curve" smooth="yes"/>
      <point x="148" y="702" type="line" smooth="yes"/>
      <point x="116" y="702"/>
      <point x="110" y="702"/>
      <point x="110" y="668" type="curve" smooth="yes"/>
      <point x="110" y="-175" type="line" smooth="yes"/>
      <point x="110" y="-199"/>
      <point x="118" y="-200"/>
    </contour>
  </outline>
</glyph>
<glyph name="asciicircum" format="1">
  <advance width="584"/>
  <unicode hex="005E"/>
  <outline>
    <contour>
      <point x="59" y="284" type="curve" smooth="yes"/>
      <point x="65" y="284"/>
      <point x="77" y="289"/>
      <point x="83" y="295" type="curve" smooth="yes"/>
      <point x="287" y="560" type="line"/>
      <point x="289" y="563"/>
      <point x="291" y="563"/>
      <point x="294" y="560" type="curve"/>
      <point x="504" y="295" type="line" smooth="yes"/>
      <point x="508" y="290"/>
      <point x="519" y="285"/>
      <point x="527" y="285" type="curve" smooth="yes"/>
      <point x="532" y="285"/>
      <point x="534" y="292"/>
      <point x="531" y="296" type="curve"/>
      <point x="292" y="604" type="line"/>
      <point x="289" y="604" type="line"/>
      <point x="56" y="295" type="line"/>
      <point x="55" y="294"/>
      <point x="53" y="292"/>
      <point x="53" y="290" type="curve" smooth="yes"/>
      <point x="53" y="287"/>
      <point x="56" y="284"/>
    </contour>
  </outline>
</glyph>
<glyph name="a" format="1">
  <advance width="761"/>
  <unicode hex="0061"/>
  <outline>
    <contour>
      <point x="192" y="-14" type="curve" smooth="yes"/>
      <point x="272" y="-14"/>
      <point x="351" y="8"/>
      <point x="425" y="50" type="curve"/>
      <point x="428" y="50" type="line"/>
      <point x="461" y="7"/>
      <point x="519" y="-14"/>
      <point x="586" y="-14" type="curve" smooth="yes"/>
      <point x="622" y="-14"/>
      <point x="693" y="3"/>
      <point x="737" y="30" type="curve" smooth="yes"/>
      <point x="751" y="35"/>
      <point x="760" y="43"/>
      <point x="760" y="49" type="curve" smooth="yes"/>
      <point x="760" y="58"/>
      <point x="757" y="61"/>
      <point x="751" y="61" type="curve" smooth="yes"/>
      <point x="744" y="61"/>
      <point x="739" y="55"/>
      <point x="733" y="49" type="curve" smooth="yes"/>
      <point x="721" y="39"/>
      <point x="711" y="32"/>
      <point x="695" y="32" type="curve" smooth="yes"/>
      <point x="667" y="32"/>
      <point x="652" y="52"/>
      <point x="653" y="83" type="curve" smooth="yes"/>
      <point x="659" y="375" type="line" smooth="yes"/>
      <point x="661" y="426"/>
      <point x="583" y="464"/>
      <point x="475" y="464" type="curve" smooth="yes"/>
      <point x="384" y="464"/>
      <point x="236" y="429"/>
      <point x="136" y="389" type="curve" smooth="yes"/>
      <point x="81" y="366"/>
      <point x="47" y="339"/>
      <point x="47" y="318" type="curve" smooth="yes"/>
      <point x="47" y="313"/>
      <point x="58" y="309"/>
      <point x="77" y="309" type="curve" smooth="yes"/>
      <point x="131" y="309"/>
      <point x="256" y="334"/>
      <point x="256" y="344" type="curve" smooth="yes"/>
      <point x="256" y="349"/>
      <point x="255" y="357"/>
      <point x="255" y="362" type="curve" smooth="yes"/>
      <point x="255" y="381"/>
      <point x="259" y="394"/>
      <point x="270" y="404" type="curve" smooth="yes"/>
      <point x="285" y="417"/>
      <point x="312" y="428"/>
      <point x="343" y="428" type="curve" smooth="yes"/>
      <point x="394" y="428"/>
      <point x="424" y="396"/>
      <point x="423" y="358" type="curve" smooth="yes"/>
      <point x="421" y="268" type="line" smooth="yes"/>
      <point x="420" y="238"/>
      <point x="417" y="236"/>
      <point x="370" y="224" type="curve" smooth="yes"/>
      <point x="173" y="175" type="line" smooth="yes"/>
      <point x="83" y="152"/>
      <point x="43" y="129"/>
      <point x="43" y="82" type="curve" smooth="yes"/>
      <point x="43" y="40"/>
      <point x="125" y="-14"/>
    </contour>
    <contour>
      <point x="320" y="21" type="curve" smooth="yes"/>
      <point x="284" y="21"/>
      <point x="253" y="50"/>
      <point x="253" y="98" type="curve" smooth="yes"/>
      <point x="253" y="133"/>
      <point x="279" y="167"/>
      <point x="382" y="203" type="curve" smooth="yes"/>
      <point x="397" y="208"/>
      <point x="405" y="209"/>
      <point x="409" y="209" type="curve" smooth="yes"/>
      <point x="420" y="209"/>
      <point x="422" y="200"/>
      <point x="421" y="180" type="curve" smooth="yes"/>
      <point x="419" y="109" type="line" smooth="yes"/>
      <point x="418" y="75"/>
      <point x="411" y="62"/>
      <point x="401" y="53" type="curve" smooth="yes"/>
      <point x="381" y="33"/>
      <point x="356" y="21"/>
    </contour>
  </outline>
</glyph>
<glyph name="e" format="1">
  <advance width="717"/>
  <unicode hex="0065"/>
  <outline>
    <contour>
      <point x="412" y="-15" type="curve" smooth="yes"/>
      <point x="511" y="-15"/>
      <point x="605" y="15"/>
      <point x="661" y="64" type="curve" smooth="yes"/>
      <point x="679" y="78"/>
      <point x="688" y="89"/>
      <point x="688" y="98" type="curve" smooth="yes"/>
      <point x="688" y="103"/>
      <point x="685" y="109"/>
      <point x="677" y="109" type="curve" smooth="yes"/>
      <point x="670" y="109"/>
      <point x="666" y="106"/>
      <point x="656" y="98" type="curve" smooth="yes"/>
      <point x="611" y="63"/>
      <point x="555" y="46"/>
      <point x="489" y="46" type="curve" smooth="yes"/>
      <point x="350" y="46"/>
      <point x="263" y="131"/>
      <point x="263" y="246" type="curve" smooth="yes"/>
      <point x="263" y="282"/>
      <point x="270" y="291"/>
      <point x="293" y="291" type="curve" smooth="yes"/>
      <point x="627" y="291" type="line" smooth="yes"/>
      <point x="666" y="291"/>
      <point x="683" y="302"/>
      <point x="683" y="325" type="curve" smooth="yes"/>
      <point x="683" y="408"/>
      <point x="577" y="464"/>
      <point x="424" y="464" type="curve" smooth="yes"/>
      <point x="211" y="464"/>
      <point x="35" y="359"/>
      <point x="35" y="228" type="curve" smooth="yes"/>
      <point x="35" y="82"/>
      <point x="183" y="-15"/>
    </contour>
    <contour>
      <point x="295" y="309" type="line" smooth="yes"/>
      <point x="285" y="309"/>
      <point x="280" y="313"/>
      <point x="280" y="324" type="curve" smooth="yes"/>
      <point x="280" y="383"/>
      <point x="348" y="448"/>
      <point x="407" y="448" type="curve" smooth="yes"/>
      <point x="470" y="448"/>
      <point x="518" y="404"/>
      <point x="518" y="347" type="curve" smooth="yes"/>
      <point x="518" y="328"/>
      <point x="515" y="317"/>
      <point x="507" y="316" type="curve" smooth="yes"/>
      <point x="479" y="310"/>
      <point x="453" y="309"/>
      <point x="412" y="309" type="curve" smooth="yes"/>
    </contour>
  </outline>
</glyph>
<glyph name="g" format="1">
  <advance width="823"/>
  <unicode hex="0067"/>
  <outline>
    <contour>
      <point x="377" y="-213" type="curve" smooth="yes"/>
      <point x="590" y="-213"/>
      <point x="817" y="-123"/>
      <point x="817" y="-38" type="curve" smooth="yes"/>
      <point x="817" y="40"/>
      <point x="716" y="58"/>
      <point x="448" y="73" type="curve" smooth="yes"/>
      <point x="303" y="81"/>
      <point x="199" y="87"/>
      <point x="199" y="103" type="curve" smooth="yes"/>
      <point x="199" y="113"/>
      <point x="227" y="127"/>
      <point x="260" y="135" type="curve"/>
      <point x="204" y="149" type="line"/>
      <point x="186" y="134"/>
      <point x="179" y="133"/>
      <point x="105" y="103" type="curve" smooth="yes"/>
      <point x="79" y="92"/>
      <point x="67" y="82"/>
      <point x="67" y="71" type="curve" smooth="yes"/>
      <point x="67" y="-14"/>
      <point x="124" y="-38"/>
      <point x="383" y="-62" type="curve" smooth="yes"/>
      <point x="540" y="-73"/>
      <point x="591" y="-77"/>
      <point x="591" y="-104" type="curve" smooth="yes"/>
      <point x="591" y="-132"/>
      <point x="563" y="-155"/>
      <point x="517" y="-170" type="curve" smooth="yes"/>
      <point x="485" y="-180"/>
      <point x="441" y="-185"/>
      <point x="385" y="-185" type="curve" smooth="yes"/>
      <point x="286" y="-185"/>
      <point x="210" y="-161"/>
      <point x="210" y="-118" type="curve" smooth="yes"/>
      <point x="210" y="-74"/>
      <point x="237" y="-52"/>
      <point x="296" y="-24" type="curve"/>
      <point x="322" y="5" type="line"/>
      <point x="237" y="-17"/>
      <point x="148" y="-39"/>
      <point x="99" y="-52" type="curve" smooth="yes"/>
      <point x="38" y="-68"/>
      <point x="13" y="-86"/>
      <point x="13" y="-114" type="curve" smooth="yes"/>
      <point x="13" y="-175"/>
      <point x="151" y="-213"/>
    </contour>
    <contour>
      <point x="407" y="124" type="curve" smooth="yes"/>
      <point x="335" y="124"/>
      <point x="283" y="188"/>
      <point x="283" y="295" type="curve" smooth="yes"/>
      <point x="283" y="384"/>
      <point x="336" y="450"/>
      <point x="398" y="450" type="curve" smooth="yes"/>
      <point x="471" y="450"/>
      <point x="521" y="406"/>
      <point x="521" y="303" type="curve" smooth="yes"/>
      <point x="521" y="194"/>
      <point x="477" y="124"/>
    </contour>
    <contour>
      <point x="371" y="106" type="curve" smooth="yes"/>
      <point x="627" y="106"/>
      <point x="719" y="205"/>
      <point x="719" y="325" type="curve" smooth="yes"/>
      <point x="719" y="358"/>
      <point x="722" y="383"/>
      <point x="726" y="395" type="curve" smooth="yes"/>
      <point x="729" y="403"/>
      <point x="742" y="407"/>
      <point x="766" y="407" type="curve" smooth="yes"/>
      <point x="801" y="407" type="line"/>
      <point x="803" y="407"/>
      <point x="807" y="408"/>
      <point x="812" y="410" type="curve" smooth="yes"/>
      <point x="819" y="413"/>
      <point x="824" y="417"/>
      <point x="824" y="422" type="curve" smooth="yes"/>
      <point x="824" y="427"/>
      <point x="813" y="432"/>
      <point x="800" y="432" type="curve" smooth="yes"/>
      <point x="781" y="432"/>
      <point x="726" y="430"/>
      <point x="696" y="430" type="curve" smooth="yes"/>
      <point x="658" y="430"/>
      <point x="630" y="431"/>
      <point x="569" y="441" type="curve" smooth="yes"/>
      <point x="517" y="450"/>
      <point x="468" y="465"/>
      <point x="394" y="465" type="curve" smooth="yes"/>
      <point x="222" y="465"/>
      <point x="65" y="390"/>
      <point x="65" y="282" type="curve" smooth="yes"/>
      <point x="65" y="185"/>
      <point x="214" y="106"/>
    </contour>
  </outline>
</glyph>
<glyph name="i" format="1">
  <advance width="425"/>
  <unicode hex="0069"/>
  <outline>
    <contour>
      <point x="65" y="-3" type="curve" smooth="yes"/>
      <point x="138" y="-3"/>
      <point x="150" y="2"/>
      <point x="215" y="2" type="curve" smooth="yes"/>
      <point x="280" y="2"/>
      <point x="294" y="-3"/>
      <point x="366" y="-3" type="curve" smooth="yes"/>
      <point x="390" y="-3"/>
      <point x="403" y="0"/>
      <point x="403" y="4" type="curve" smooth="yes"/>
      <point x="403" y="9"/>
      <point x="391" y="12"/>
      <point x="378" y="14" type="curve" smooth="yes"/>
      <point x="351" y="18"/>
      <point x="332" y="23"/>
      <point x="332" y="42" type="curve" smooth="yes"/>
      <point x="332" y="340" type="line" smooth="yes"/>
      <point x="332" y="382"/>
      <point x="341" y="454"/>
      <point x="341" y="471" type="curve" smooth="yes"/>
      <point x="341" y="475"/>
      <point x="339" y="477"/>
      <point x="335" y="477" type="curve" smooth="yes"/>
      <point x="326" y="477"/>
      <point x="313" y="474"/>
      <point x="302" y="470" type="curve" smooth="yes"/>
      <point x="262" y="453"/>
      <point x="186" y="428"/>
      <point x="62" y="415" type="curve" smooth="yes"/>
      <point x="47" y="414"/>
      <point x="41" y="412"/>
      <point x="41" y="408" type="curve" smooth="yes"/>
      <point x="41" y="403"/>
      <point x="44" y="400"/>
      <point x="51" y="399" type="curve" smooth="yes"/>
      <point x="85" y="394"/>
      <point x="98" y="370"/>
      <point x="98" y="338" type="curve" smooth="yes"/>
      <point x="98" y="42" type="line" smooth="yes"/>
      <point x="98" y="22"/>
      <point x="80" y="18"/>
      <point x="53" y="14" type="curve" smooth="yes"/>
      <point x="40" y="12"/>
      <point x="28" y="9"/>
      <point x="28" y="4" type="curve" smooth="yes"/>
      <point x="28" y="0"/>
      <point x="43" y="-3"/>
    </contour>
    <contour>
      <point x="214" y="554" type="curve" smooth="yes"/>
      <point x="302" y="554"/>
      <point x="347" y="570"/>
      <point x="347" y="604" type="curve" smooth="yes"/>
      <point x="347" y="639"/>
      <point x="302" y="655"/>
      <point x="214" y="655" type="curve" smooth="yes"/>
      <point x="128" y="655"/>
      <point x="82" y="639"/>
      <point x="82" y="604" type="curve" smooth="yes"/>
      <point x="82" y="570"/>
      <point x="128" y="554"/>
    </contour>
  </outline>
</glyph>
<glyph name="k" format="1">
  <advance width="926"/>
  <unicode hex="006B"/>
  <outline>
    <contour>
      <point x="49" y="-3" type="curve" smooth="yes"/>
      <point x="127" y="-3"/>
      <point x="135" y="2"/>
      <point x="205" y="2" type="curve" smooth="yes"/>
      <point x="275" y="2"/>
      <point x="268" y="-3"/>
      <point x="346" y="-3" type="curve" smooth="yes"/>
      <point x="356" y="-3"/>
      <point x="395" y="-3"/>
      <point x="395" y="4" type="curve" smooth="yes"/>
      <point x="395" y="10"/>
      <point x="381" y="11"/>
      <point x="368" y="13" type="curve" smooth="yes"/>
      <point x="342" y="17"/>
      <point x="327" y="20"/>
      <point x="327" y="48" type="curve" smooth="yes"/>
      <point x="326" y="88"/>
      <point x="326" y="112"/>
      <point x="326" y="135" type="curve" smooth="yes"/>
      <point x="326" y="158"/>
      <point x="326" y="199"/>
      <point x="327" y="218" type="curve"/>
      <point x="327" y="223"/>
      <point x="330" y="225"/>
      <point x="334" y="225" type="curve" smooth="yes"/>
      <point x="339" y="225"/>
      <point x="342" y="223"/>
      <point x="347" y="218" type="curve" smooth="yes"/>
      <point x="525" y="46" type="line"/>
      <point x="530" y="40"/>
      <point x="533" y="35"/>
      <point x="533" y="31" type="curve" smooth="yes"/>
      <point x="533" y="21"/>
      <point x="516" y="16"/>
      <point x="483" y="14" type="curve" smooth="yes"/>
      <point x="473" y="13"/>
      <point x="464" y="9"/>
      <point x="464" y="5" type="curve" smooth="yes"/>
      <point x="464" y="2"/>
      <point x="472" y="0"/>
      <point x="502" y="0" type="curve" smooth="yes"/>
      <point x="646" y="0"/>
      <point x="783" y="-3"/>
      <point x="893" y="-3" type="curve" smooth="yes"/>
      <point x="919" y="-3"/>
      <point x="936" y="-2"/>
      <point x="936" y="4" type="curve" smooth="yes"/>
      <point x="936" y="8"/>
      <point x="925" y="11"/>
      <point x="911" y="13" type="curve" smooth="yes"/>
      <point x="890" y="16"/>
      <point x="865" y="28"/>
      <point x="832" y="54" type="curve" smooth="yes"/>
      <point x="807" y="73"/>
      <point x="654" y="230"/>
      <point x="594" y="288" type="curve" smooth="yes"/>
      <point x="592" y="290"/>
      <point x="590" y="293"/>
      <point x="590" y="295" type="curve" smooth="yes"/>
      <point x="590" y="298"/>
      <point x="592" y="303"/>
      <point x="597" y="305" type="curve" smooth="yes"/>
      <point x="657" y="342"/>
      <point x="764" y="389"/>
      <point x="792" y="406" type="curve" smooth="yes"/>
      <point x="817" y="420"/>
      <point x="855" y="432"/>
      <point x="884" y="438" type="curve" smooth="yes"/>
      <point x="900" y="442"/>
      <point x="913" y="445"/>
      <point x="913" y="450" type="curve" smooth="yes"/>
      <point x="913" y="455"/>
      <point x="907" y="457"/>
      <point x="897" y="457" type="curve" smooth="yes"/>
      <point x="873" y="457"/>
      <point x="828" y="450"/>
      <point x="792" y="450" type="curve" smooth="yes"/>
      <point x="699" y="450" type="line" smooth="yes"/>
      <point x="683" y="450"/>
      <point x="674" y="447"/>
      <point x="674" y="443" type="curve" smooth="yes"/>
      <point x="674" y="440"/>
      <point x="677" y="438"/>
      <point x="688" y="437" type="curve" smooth="yes"/>
      <point x="715" y="436"/>
      <point x="731" y="428"/>
      <point x="731" y="418" type="curve" smooth="yes"/>
      <point x="731" y="412"/>
      <point x="724" y="408"/>
      <point x="704" y="401" type="curve" smooth="yes"/>
      <point x="644" y="365"/>
      <point x="534" y="314"/>
      <point x="379" y="254" type="curve" smooth="yes"/>
      <point x="358" y="243"/>
      <point x="344" y="236"/>
      <point x="334" y="236" type="curve" smooth="yes"/>
      <point x="330" y="236"/>
      <point x="327" y="239"/>
      <point x="327" y="245" type="curve" smooth="yes"/>
      <point x="327" y="511" type="line" smooth="yes"/>
      <point x="327" y="596"/>
      <point x="338" y="631"/>
      <point x="338" y="645" type="curve" smooth="yes"/>
      <point x="338" y="651"/>
      <point x="333" y="654"/>
      <point x="323" y="654" type="curve" smooth="yes"/>
      <point x="316" y="654"/>
      <point x="306" y="652"/>
      <point x="295" y="649" type="curve" smooth="yes"/>
      <point x="228" y="633"/>
      <point x="150" y="624"/>
      <point x="45" y="617" type="curve" smooth="yes"/>
      <point x="40" y="616"/>
      <point x="36" y="614"/>
      <point x="35" y="609" type="curve" smooth="yes"/>
      <point x="35" y="605"/>
      <point x="38" y="602"/>
      <point x="45" y="602" type="curve" smooth="yes"/>
      <point x="91" y="598"/>
      <point x="93" y="584"/>
      <point x="93" y="542" type="curve" smooth="yes"/>
      <point x="93" y="45" type="line" smooth="yes"/>
      <point x="93" y="22"/>
      <point x="77" y="17"/>
      <point x="47" y="13" type="curve" smooth="yes"/>
      <point x="35" y="12"/>
      <point x="22" y="10"/>
      <point x="22" y="4" type="curve" smooth="yes"/>
      <point x="22" y="-1"/>
      <point x="32" y="-3"/>
    </contour>
  </outline>
</glyph>
<glyph name="l" format="1">
  <advance width="418"/>
  <unicode hex="006C"/>
  <outline>
    <contour>
      <point x="58" y="-3" type="curve" smooth="yes"/>
      <point x="129" y="-3"/>
      <point x="146" y="2"/>
      <point x="209" y="2" type="curve" smooth="yes"/>
      <point x="273" y="2"/>
      <point x="289" y="-3"/>
      <point x="360" y="-3" type="curve" smooth="yes"/>
      <point x="372" y="-3"/>
      <point x="396" y="-3"/>
      <point x="396" y="3" type="curve" smooth="yes"/>
      <point x="396" y="9"/>
      <point x="384" y="12"/>
      <point x="373" y="14" type="curve"/>
      <point x="349" y="18"/>
      <point x="327" y="21"/>
      <point x="327" y="43" type="curve" smooth="yes"/>
      <point x="327" y="511" type="line" smooth="yes"/>
      <point x="327" y="601"/>
      <point x="334" y="635"/>
      <point x="334" y="647" type="curve" smooth="yes"/>
      <point x="334" y="650"/>
      <point x="332" y="654"/>
      <point x="329" y="654" type="curve" smooth="yes"/>
      <point x="324" y="654"/>
      <point x="320" y="653"/>
      <point x="315" y="652" type="curve" smooth="yes"/>
      <point x="241" y="630"/>
      <point x="169" y="617"/>
      <point x="55" y="610" type="curve" smooth="yes"/>
      <point x="41" y="609"/>
      <point x="34" y="606"/>
      <point x="34" y="602" type="curve" smooth="yes"/>
      <point x="34" y="597"/>
      <point x="37" y="594"/>
      <point x="48" y="592" type="curve" smooth="yes"/>
      <point x="81" y="586"/>
      <point x="92" y="568"/>
      <point x="92" y="535" type="curve" smooth="yes"/>
      <point x="92" y="43" type="line" smooth="yes"/>
      <point x="92" y="21"/>
      <point x="65" y="17"/>
      <point x="45" y="14" type="curve"/>
      <point x="34" y="11"/>
      <point x="22" y="9"/>
      <point x="22" y="3" type="curve" smooth="yes"/>
      <point x="22" y="-3"/>
      <point x="46" y="-3"/>
    </contour>
  </outline>
</glyph>
<glyph name="m" format="1">
  <advance width="1390"/>
  <unicode hex="006D"/>
  <outline>
    <contour>
      <point x="65" y="-3" type="curve" smooth="yes"/>
      <point x="139" y="-3"/>
      <point x="150" y="2"/>
      <point x="215" y="2" type="curve" smooth="yes"/>
      <point x="280" y="2"/>
      <point x="292" y="-3"/>
      <point x="366" y="-3" type="curve" smooth="yes"/>
      <point x="388" y="-3"/>
      <point x="403" y="-1"/>
      <point x="403" y="3" type="curve" smooth="yes"/>
      <point x="403" y="9"/>
      <point x="391" y="10"/>
      <point x="378" y="13" type="curve" smooth="yes"/>
      <point x="357" y="16"/>
      <point x="332" y="18"/>
      <point x="332" y="36" type="curve" smooth="yes"/>
      <point x="332" y="318" type="line" smooth="yes"/>
      <point x="332" y="360"/>
      <point x="341" y="383"/>
      <point x="367" y="399" type="curve" smooth="yes"/>
      <point x="399" y="422"/>
      <point x="434" y="432"/>
      <point x="477" y="432" type="curve" smooth="yes"/>
      <point x="532" y="432"/>
      <point x="579" y="378"/>
      <point x="579" y="323" type="curve" smooth="yes"/>
      <point x="579" y="36" type="line" smooth="yes"/>
      <point x="579" y="18"/>
      <point x="554" y="16"/>
      <point x="533" y="13" type="curve" smooth="yes"/>
      <point x="520" y="10"/>
      <point x="508" y="9"/>
      <point x="508" y="3" type="curve" smooth="yes"/>
      <point x="508" y="-1"/>
      <point x="525" y="-3"/>
      <point x="545" y="-3" type="curve" smooth="yes"/>
      <point x="618" y="-3"/>
      <point x="633" y="2"/>
      <point x="698" y="2" type="curve" smooth="yes"/>
      <point x="762" y="2"/>
      <point x="775" y="-3"/>
      <point x="848" y="-3" type="curve" smooth="yes"/>
      <point x="872" y="-3"/>
      <point x="885" y="-1"/>
      <point x="885" y="3" type="curve" smooth="yes"/>
      <point x="885" y="8"/>
      <point x="875" y="11"/>
      <point x="861" y="13" type="curve" smooth="yes"/>
      <point x="839" y="15"/>
      <point x="813" y="18"/>
      <point x="813" y="36" type="curve" smooth="yes"/>
      <point x="813" y="318" type="line" smooth="yes"/>
      <point x="813" y="360"/>
      <point x="824" y="383"/>
      <point x="849" y="399" type="curve" smooth="yes"/>
      <point x="880" y="422"/>
      <point x="915" y="432"/>
      <point x="958" y="432" type="curve" smooth="yes"/>
      <point x="1012" y="432"/>
      <point x="1058" y="378"/>
      <point x="1058" y="323" type="curve" smooth="yes"/>
      <point x="1058" y="36" type="line" smooth="yes"/>
      <point x="1058" y="18"/>
      <point x="1035" y="15"/>
      <point x="1013" y="13" type="curve" smooth="yes"/>
      <point x="998" y="11"/>
      <point x="988" y="9"/>
      <point x="988" y="3" type="curve" smooth="yes"/>
      <point x="988" y="-1"/>
      <point x="1003" y="-3"/>
      <point x="1025" y="-3" type="curve" smooth="yes"/>
      <point x="1099" y="-3"/>
      <point x="1114" y="2"/>
      <point x="1179" y="2" type="curve" smooth="yes"/>
      <point x="1244" y="2"/>
      <point x="1252" y="-3"/>
      <point x="1326" y="-3" type="curve" smooth="yes"/>
      <point x="1353" y="-3"/>
      <point x="1363" y="-1"/>
      <point x="1363" y="3" type="curve" smooth="yes"/>
      <point x="1363" y="8"/>
      <point x="1353" y="10"/>
      <point x="1339" y="13" type="curve" smooth="yes"/>
      <point x="1318" y="16"/>
      <point x="1293" y="18"/>
      <point x="1293" y="36" type="curve" smooth="yes"/>
      <point x="1293" y="325" type="line" smooth="yes"/>
      <point x="1293" y="395"/>
      <point x="1230" y="464"/>
      <point x="1112" y="464" type="curve" smooth="yes"/>
      <point x="992" y="464"/>
      <point x="892" y="439"/>
      <point x="814" y="409" type="curve"/>
      <point x="809" y="409" type="line"/>
      <point x="770" y="450"/>
      <point x="714" y="464"/>
      <point x="626" y="464" type="curve" smooth="yes"/>
      <point x="485" y="464"/>
      <point x="395" y="433"/>
      <point x="340" y="409" type="curve"/>
      <point x="338" y="409" type="line"/>
      <point x="336" y="410"/>
      <point x="335" y="414"/>
      <point x="335" y="419" type="curve" smooth="yes"/>
      <point x="335" y="428"/>
      <point x="340" y="459"/>
      <point x="340" y="468" type="curve" smooth="yes"/>
      <point x="340" y="476"/>
      <point x="337" y="480"/>
      <point x="328" y="480" type="curve" smooth="yes"/>
      <point x="320" y="480"/>
      <point x="314" y="477"/>
      <point x="309" y="475" type="curve" smooth="yes"/>
      <point x="232" y="448"/>
      <point x="193" y="430"/>
      <point x="66" y="420" type="curve" smooth="yes"/>
      <point x="54" y="419"/>
      <point x="47" y="418"/>
      <point x="47" y="413" type="curve" smooth="yes"/>
      <point x="47" y="407"/>
      <point x="51" y="405"/>
      <point x="57" y="404" type="curve" smooth="yes"/>
      <point x="89" y="399"/>
      <point x="98" y="381"/>
      <point x="98" y="342" type="curve" smooth="yes"/>
      <point x="98" y="36" type="line" smooth="yes"/>
      <point x="98" y="18"/>
      <point x="73" y="16"/>
      <point x="53" y="13" type="curve" smooth="yes"/>
      <point x="38" y="10"/>
      <point x="28" y="9"/>
      <point x="28" y="3" type="curve" smooth="yes"/>
      <point x="28" y="-1"/>
      <point x="45" y="-3"/>
    </contour>
  </outline>
</glyph>
<glyph name="n" format="1">
  <advance width="944"/>
  <unicode hex="006E"/>
  <outline>
    <contour>
      <point x="65" y="-3" type="curve" smooth="yes"/>
      <point x="139" y="-3"/>
      <point x="151" y="0"/>
      <point x="215" y="0" type="curve" smooth="yes"/>
      <point x="280" y="0"/>
      <point x="292" y="-3"/>
      <point x="366" y="-3" type="curve" smooth="yes"/>
      <point x="390" y="-3"/>
      <point x="403" y="-1"/>
      <point x="403" y="3" type="curve" smooth="yes"/>
      <point x="403" y="7"/>
      <point x="395" y="9"/>
      <point x="378" y="11" type="curve" smooth="yes"/>
      <point x="357" y="14"/>
      <point x="332" y="18"/>
      <point x="332" y="32" type="curve" smooth="yes"/>
      <point x="332" y="363" type="line" smooth="yes"/>
      <point x="332" y="372"/>
      <point x="336" y="383"/>
      <point x="343" y="389" type="curve" smooth="yes"/>
      <point x="375" y="418"/>
      <point x="428" y="433"/>
      <point x="492" y="433" type="curve" smooth="yes"/>
      <point x="565" y="433"/>
      <point x="613" y="393"/>
      <point x="613" y="330" type="curve" smooth="yes"/>
      <point x="613" y="32" type="line" smooth="yes"/>
      <point x="613" y="18"/>
      <point x="589" y="14"/>
      <point x="568" y="11" type="curve" smooth="yes"/>
      <point x="555" y="10"/>
      <point x="543" y="7"/>
      <point x="543" y="2" type="curve" smooth="yes"/>
      <point x="543" y="-2"/>
      <point x="566" y="-3"/>
      <point x="581" y="-3" type="curve" smooth="yes"/>
      <point x="655" y="-3"/>
      <point x="667" y="0"/>
      <point x="732" y="0" type="curve" smooth="yes"/>
      <point x="797" y="0"/>
      <point x="807" y="-3"/>
      <point x="881" y="-3" type="curve" smooth="yes"/>
      <point x="896" y="-3"/>
      <point x="918" y="-2"/>
      <point x="918" y="2" type="curve" smooth="yes"/>
      <point x="918" y="7"/>
      <point x="906" y="9"/>
      <point x="893" y="11" type="curve"/>
      <point x="872" y="15"/>
      <point x="847" y="18"/>
      <point x="847" y="32" type="curve" smooth="yes"/>
      <point x="847" y="333" type="line" smooth="yes"/>
      <point x="847" y="406"/>
      <point x="758" y="463"/>
      <point x="637" y="463" type="curve" smooth="yes"/>
      <point x="519" y="463"/>
      <point x="417" y="448"/>
      <point x="337" y="412" type="curve"/>
      <point x="336" y="417"/>
      <point x="335" y="421"/>
      <point x="335" y="426" type="curve" smooth="yes"/>
      <point x="335" y="443"/>
      <point x="340" y="465"/>
      <point x="340" y="473" type="curve" smooth="yes"/>
      <point x="340" y="477"/>
      <point x="338" y="480"/>
      <point x="335" y="480" type="curve" smooth="yes"/>
      <point x="325" y="480"/>
      <point x="318" y="478"/>
      <point x="308" y="474" type="curve" smooth="yes"/>
      <point x="239" y="451"/>
      <point x="169" y="435"/>
      <point x="59" y="420" type="curve" smooth="yes"/>
      <point x="50" y="419"/>
      <point x="47" y="417"/>
      <point x="47" y="413" type="curve" smooth="yes"/>
      <point x="47" y="409"/>
      <point x="50" y="407"/>
      <point x="56" y="405" type="curve" smooth="yes"/>
      <point x="91" y="395"/>
      <point x="98" y="369"/>
      <point x="98" y="327" type="curve" smooth="yes"/>
      <point x="98" y="32" type="line" smooth="yes"/>
      <point x="98" y="18"/>
      <point x="74" y="14"/>
      <point x="53" y="11" type="curve" smooth="yes"/>
      <point x="37" y="9"/>
      <point x="28" y="8"/>
      <point x="28" y="3" type="curve" smooth="yes"/>
      <point x="28" y="-1"/>
      <point x="43" y="-3"/>
    </contour>
  </outline>
</glyph>
<glyph name="o" format="1">
  <advance width="886"/>
  <unicode hex="006F"/>
  <outline>
    <contour>
      <point x="417" y="-14" type="curve" smooth="yes"/>
      <point x="684" y="-14"/>
      <point x="845" y="83"/>
      <point x="845" y="239" type="curve" smooth="yes"/>
      <point x="845" y="369"/>
      <point x="684" y="464"/>
      <point x="455" y="464" type="curve" smooth="yes"/>
      <point x="223" y="464"/>
      <point x="41" y="350"/>
      <point x="41" y="211" type="curve" smooth="yes"/>
      <point x="41" y="75"/>
      <point x="186" y="-14"/>
    </contour>
    <contour>
      <point x="452" y="3" type="curve" smooth="yes"/>
      <point x="351" y="3"/>
      <point x="276" y="104"/>
      <point x="276" y="237" type="curve" smooth="yes"/>
      <point x="276" y="376"/>
      <point x="327" y="446"/>
      <point x="429" y="446" type="curve" smooth="yes"/>
      <point x="532" y="446"/>
      <point x="609" y="345"/>
      <point x="609" y="212" type="curve" smooth="yes"/>
      <point x="609" y="67"/>
      <point x="561" y="3"/>
    </contour>
  </outline>
</glyph>
<glyph name="p" format="1">
  <advance width="926"/>
  <unicode hex="0070"/>
  <outline>
    <contour>
      <point x="61" y="-205" type="curve" smooth="yes"/>
      <point x="131" y="-205"/>
      <point x="142" y="-202"/>
      <point x="205" y="-202" type="curve" smooth="yes"/>
      <point x="268" y="-202"/>
      <point x="301" y="-205"/>
      <point x="371" y="-205" type="curve" smooth="yes"/>
      <point x="387" y="-205"/>
      <point x="411" y="-204"/>
      <point x="411" y="-199" type="curve" smooth="yes"/>
      <point x="411" y="-194"/>
      <point x="399" y="-191"/>
      <point x="386" y="-188" type="curve"/>
      <point x="364" y="-185"/>
      <point x="328" y="-182"/>
      <point x="328" y="-165" type="curve" smooth="yes"/>
      <point x="328" y="-35" type="line" smooth="yes"/>
      <point x="328" y="-27"/>
      <point x="329" y="32"/>
      <point x="333" y="32" type="curve"/>
      <point x="367" y="2"/>
      <point x="455" y="-14"/>
      <point x="503" y="-14" type="curve" smooth="yes"/>
      <point x="717" y="-14"/>
      <point x="885" y="120"/>
      <point x="885" y="253" type="curve" smooth="yes"/>
      <point x="885" y="358"/>
      <point x="781" y="463"/>
      <point x="606" y="464" type="curve" smooth="yes"/>
      <point x="500" y="464"/>
      <point x="363" y="422"/>
      <point x="331" y="404" type="curve"/>
      <point x="330" y="412"/>
      <point x="330" y="415"/>
      <point x="330" y="418" type="curve" smooth="yes"/>
      <point x="330" y="432"/>
      <point x="335" y="458"/>
      <point x="335" y="468" type="curve" smooth="yes"/>
      <point x="335" y="471"/>
      <point x="332" y="476"/>
      <point x="329" y="476" type="curve" smooth="yes"/>
      <point x="328" y="476"/>
      <point x="327" y="475"/>
      <point x="326" y="475" type="curve"/>
      <point x="250" y="461"/>
      <point x="168" y="447"/>
      <point x="53" y="435" type="curve" smooth="yes"/>
      <point x="42" y="434"/>
      <point x="36" y="431"/>
      <point x="36" y="426" type="curve" smooth="yes"/>
      <point x="36" y="422"/>
      <point x="39" y="419"/>
      <point x="45" y="419" type="curve" smooth="yes"/>
      <point x="83" y="414"/>
      <point x="94" y="387"/>
      <point x="94" y="359" type="curve" smooth="yes"/>
      <point x="94" y="-165" type="line" smooth="yes"/>
      <point x="94" y="-182"/>
      <point x="69" y="-185"/>
      <point x="48" y="-188" type="curve"/>
      <point x="35" y="-191"/>
      <point x="24" y="-194"/>
      <point x="24" y="-199" type="curve" smooth="yes"/>
      <point x="24" y="-204"/>
      <point x="47" y="-205"/>
    </contour>
    <contour>
      <point x="481" y="8" type="curve" smooth="yes"/>
      <point x="377" y="8"/>
      <point x="328" y="49"/>
      <point x="328" y="185" type="curve" smooth="yes"/>
      <point x="328" y="213"/>
      <point x="331" y="296"/>
      <point x="331" y="371" type="curve" smooth="yes"/>
      <point x="331" y="388"/>
      <point x="405" y="427"/>
      <point x="473" y="427" type="curve" smooth="yes"/>
      <point x="589" y="427"/>
      <point x="649" y="357"/>
      <point x="649" y="217" type="curve" smooth="yes"/>
      <point x="649" y="71"/>
      <point x="574" y="8"/>
    </contour>
  </outline>
</glyph>
<glyph name="r" format="1">
  <advance width="554"/>
  <unicode hex="0072"/>
  <outline>
    <contour>
      <point x="70" y="-3" type="curve" smooth="yes"/>
      <point x="144" y="-3"/>
      <point x="155" y="2"/>
      <point x="219" y="2" type="curve" smooth="yes"/>
      <point x="282" y="2"/>
      <point x="303" y="-3"/>
      <point x="378" y="-3" type="curve" smooth="yes"/>
      <point x="403" y="-3"/>
      <point x="415" y="-1"/>
      <point x="415" y="3" type="curve" smooth="yes"/>
      <point x="415" y="8"/>
      <point x="405" y="10"/>
      <point x="390" y="12" type="curve" smooth="yes"/>
      <point x="355" y="17"/>
      <point x="334" y="22"/>
      <point x="334" y="37" type="curve" smooth="yes"/>
      <point x="334" y="331" type="line" smooth="yes"/>
      <point x="334" y="392"/>
      <point x="383" y="412"/>
      <point x="426" y="412" type="curve" smooth="yes"/>
      <point x="438" y="412"/>
      <point x="453" y="402"/>
      <point x="466" y="394" type="curve" smooth="yes"/>
      <point x="479" y="384"/>
      <point x="494" y="374"/>
      <point x="503" y="374" type="curve" smooth="yes"/>
      <point x="529" y="374"/>
      <point x="548" y="407"/>
      <point x="548" y="427" type="curve" smooth="yes"/>
      <point x="548" y="445"/>
      <point x="522" y="459"/>
      <point x="486" y="459" type="curve" smooth="yes"/>
      <point x="436" y="459"/>
      <point x="380" y="430"/>
      <point x="339" y="391" type="curve"/>
      <point x="338" y="391"/>
      <point x="337" y="392"/>
      <point x="337" y="393" type="curve"/>
      <point x="339" y="425"/>
      <point x="340" y="461"/>
      <point x="340" y="468" type="curve"/>
      <point x="340" y="472"/>
      <point x="338" y="475"/>
      <point x="335" y="475" type="curve" smooth="yes"/>
      <point x="329" y="475"/>
      <point x="317" y="473"/>
      <point x="299" y="466" type="curve" smooth="yes"/>
      <point x="248" y="447"/>
      <point x="147" y="423"/>
      <point x="66" y="415" type="curve" smooth="yes"/>
      <point x="56" y="414"/>
      <point x="45" y="411"/>
      <point x="45" y="408" type="curve" smooth="yes"/>
      <point x="45" y="404"/>
      <point x="50" y="401"/>
      <point x="55" y="401" type="curve" smooth="yes"/>
      <point x="91" y="394"/>
      <point x="100" y="366"/>
      <point x="100" y="336" type="curve" smooth="yes"/>
      <point x="100" y="37" type="line" smooth="yes"/>
      <point x="100" y="21"/>
      <point x="86" y="16"/>
      <point x="59" y="12" type="curve" smooth="yes"/>
      <point x="43" y="10"/>
      <point x="34" y="8"/>
      <point x="34" y="3" type="curve" smooth="yes"/>
      <point x="34" y="-1"/>
      <point x="45" y="-3"/>
    </contour>
  </outline>
</glyph>
<glyph name="s" format="1">
  <advance width="575"/>
  <unicode hex="0073"/>
  <outline>
    <contour>
      <point x="248" y="-14" type="curve" smooth="yes"/>
      <point x="430" y="-14"/>
      <point x="538" y="38"/>
      <point x="538" y="118" type="curve" smooth="yes"/>
      <point x="538" y="186"/>
      <point x="493" y="222"/>
      <point x="410" y="269" type="curve" smooth="yes"/>
      <point x="333" y="310"/>
      <point x="313" y="334"/>
      <point x="313" y="376" type="curve" smooth="yes"/>
      <point x="313" y="420"/>
      <point x="347" y="447"/>
      <point x="398" y="447" type="curve" smooth="yes"/>
      <point x="451" y="447"/>
      <point x="476" y="425"/>
      <point x="496" y="368" type="curve" smooth="yes"/>
      <point x="498" y="363"/>
      <point x="507" y="359"/>
      <point x="516" y="359" type="curve" smooth="yes"/>
      <point x="521" y="359"/>
      <point x="526" y="361"/>
      <point x="526" y="366" type="curve" smooth="yes"/>
      <point x="526" y="394"/>
      <point x="516" y="430"/>
      <point x="505" y="445" type="curve"/>
      <point x="478" y="456"/>
      <point x="420" y="464"/>
      <point x="335" y="464" type="curve" smooth="yes"/>
      <point x="134" y="464"/>
      <point x="53" y="413"/>
      <point x="53" y="338" type="curve" smooth="yes"/>
      <point x="53" y="282"/>
      <point x="85" y="245"/>
      <point x="170" y="199" type="curve" smooth="yes"/>
      <point x="246" y="156"/>
      <point x="270" y="130"/>
      <point x="270" y="85" type="curve" smooth="yes"/>
      <point x="270" y="38"/>
      <point x="233" y="1"/>
      <point x="177" y="1" type="curve" smooth="yes"/>
      <point x="119" y="1"/>
      <point x="73" y="29"/>
      <point x="57" y="98" type="curve"/>
      <point x="55" y="109"/>
      <point x="49" y="111"/>
      <point x="44" y="111" type="curve" smooth="yes"/>
      <point x="37" y="111"/>
      <point x="32" y="108"/>
      <point x="32" y="98" type="curve"/>
      <point x="33" y="79"/>
      <point x="37" y="36"/>
      <point x="45" y="22" type="curve"/>
      <point x="94" y="-1"/>
      <point x="168" y="-14"/>
    </contour>
  </outline>
</glyph>
<glyph name="y" format="1">
  <advance width="691"/>
  <unicode hex="0079"/>
  <outline>
    <contour>
      <point x="255" y="-213" type="curve" smooth="yes"/>
      <point x="313" y="-213"/>
      <point x="364" y="-192"/>
      <point x="383" y="-153" type="curve"/>
      <point x="604" y="375" type="line"/>
      <point x="623" y="419"/>
      <point x="651" y="437"/>
      <point x="671" y="441" type="curve"/>
      <point x="692" y="445"/>
      <point x="697" y="448"/>
      <point x="697" y="451" type="curve" smooth="yes"/>
      <point x="697" y="455"/>
      <point x="688" y="456"/>
      <point x="674" y="456" type="curve" smooth="yes"/>
      <point x="655" y="456"/>
      <point x="646" y="453"/>
      <point x="607" y="453" type="curve" smooth="yes"/>
      <point x="569" y="453"/>
      <point x="550" y="456"/>
      <point x="535" y="456" type="curve" smooth="yes"/>
      <point x="523" y="456"/>
      <point x="512" y="457"/>
      <point x="512" y="452" type="curve" smooth="yes"/>
      <point x="512" y="449"/>
      <point x="511" y="451"/>
      <point x="537" y="448" type="curve" smooth="yes"/>
      <point x="570" y="443"/>
      <point x="583" y="430"/>
      <point x="583" y="406" type="curve" smooth="yes"/>
      <point x="583" y="391"/>
      <point x="581" y="375"/>
      <point x="574" y="359" type="curve"/>
      <point x="465" y="102" type="line" smooth="yes"/>
      <point x="464" y="100"/>
      <point x="465" y="100"/>
      <point x="464" y="100" type="curve" smooth="yes"/>
      <point x="464" y="100"/>
      <point x="464" y="100"/>
      <point x="463" y="102" type="curve" smooth="yes"/>
      <point x="342" y="370" type="line" smooth="yes"/>
      <point x="338" y="380"/>
      <point x="339" y="388"/>
      <point x="339" y="397" type="curve" smooth="yes"/>
      <point x="339" y="416"/>
      <point x="348" y="441"/>
      <point x="369" y="445" type="curve" smooth="yes"/>
      <point x="384" y="449"/>
      <point x="393" y="447"/>
      <point x="393" y="452" type="curve" smooth="yes"/>
      <point x="393" y="457"/>
      <point x="366" y="456"/>
      <point x="352" y="456" type="curve" smooth="yes"/>
      <point x="272" y="456"/>
      <point x="270" y="453"/>
      <point x="197" y="453" type="curve" smooth="yes"/>
      <point x="125" y="453"/>
      <point x="126" y="456"/>
      <point x="46" y="456" type="curve" smooth="yes"/>
      <point x="32" y="456"/>
      <point x="5" y="455"/>
      <point x="5" y="451" type="curve" smooth="yes"/>
      <point x="5" y="446"/>
      <point x="9" y="444"/>
      <point x="22" y="441" type="curve"/>
      <point x="42" y="436"/>
      <point x="65" y="421"/>
      <point x="75" y="397" type="curve" smooth="yes"/>
      <point x="346" y="-107" type="line" smooth="yes"/>
      <point x="351" y="-116"/>
      <point x="354" y="-124"/>
      <point x="354" y="-134" type="curve" smooth="yes"/>
      <point x="354" y="-142"/>
      <point x="352" y="-149"/>
      <point x="347" y="-156" type="curve"/>
      <point x="349" y="-144"/>
      <point x="358" y="-124"/>
      <point x="345" y="-142" type="curve" smooth="yes"/>
      <point x="338" y="-149"/>
      <point x="328" y="-154"/>
      <point x="318" y="-154" type="curve" smooth="yes"/>
      <point x="301" y="-154"/>
      <point x="281" y="-94"/>
      <point x="223" y="-94" type="curve" smooth="yes"/>
      <point x="178" y="-94"/>
      <point x="152" y="-123"/>
      <point x="152" y="-156" type="curve" smooth="yes"/>
      <point x="152" y="-197"/>
      <point x="199" y="-213"/>
    </contour>
  </outline>
</glyph>
<glyph name="z" format="1">
  <advance width="644"/>
  <unicode hex="007A"/>
  <outline>
    <contour>
      <point x="44" y="-5" type="curve" smooth="yes"/>
      <point x="76" y="-5"/>
      <point x="141" y="0"/>
      <point x="193" y="0" type="curve" smooth="yes"/>
      <point x="398" y="0"/>
      <point x="533" y="-5"/>
      <point x="587" y="-5" type="curve" smooth="yes"/>
      <point x="597" y="-5"/>
      <point x="604" y="0"/>
      <point x="606" y="9" type="curve" smooth="yes"/>
      <point x="611" y="25"/>
      <point x="639" y="112"/>
      <point x="639" y="120" type="curve" smooth="yes"/>
      <point x="639" y="131"/>
      <point x="623" y="139"/>
      <point x="615" y="126" type="curve" smooth="yes"/>
      <point x="596" y="98"/>
      <point x="573" y="57"/>
      <point x="559" y="38" type="curve" smooth="yes"/>
      <point x="546" y="21"/>
      <point x="531" y="18"/>
      <point x="510" y="18" type="curve" smooth="yes"/>
      <point x="339" y="18" type="line" smooth="yes"/>
      <point x="328" y="18"/>
      <point x="321" y="23"/>
      <point x="328" y="33" type="curve" smooth="yes"/>
      <point x="579" y="392" type="line" smooth="yes"/>
      <point x="593" y="412"/>
      <point x="603" y="425"/>
      <point x="618" y="439" type="curve"/>
      <point x="625" y="446"/>
      <point x="616" y="454"/>
      <point x="606" y="454" type="curve" smooth="yes"/>
      <point x="493" y="453"/>
      <point x="387" y="451"/>
      <point x="258" y="451" type="curve" smooth="yes"/>
      <point x="241" y="451"/>
      <point x="215" y="450"/>
      <point x="188" y="450" type="curve" smooth="yes"/>
      <point x="154" y="450"/>
      <point x="118" y="451"/>
      <point x="107" y="456" type="curve" smooth="yes"/>
      <point x="96" y="461"/>
      <point x="85" y="465"/>
      <point x="79" y="465" type="curve" smooth="yes"/>
      <point x="72" y="465"/>
      <point x="59" y="457"/>
      <point x="59" y="447" type="curve" smooth="yes"/>
      <point x="59" y="422"/>
      <point x="45" y="371"/>
      <point x="39" y="353" type="curve" smooth="yes"/>
      <point x="35" y="341"/>
      <point x="53" y="334"/>
      <point x="62" y="343" type="curve" smooth="yes"/>
      <point x="76" y="362"/>
      <point x="90" y="398"/>
      <point x="105" y="415" type="curve" smooth="yes"/>
      <point x="113" y="423"/>
      <point x="129" y="435"/>
      <point x="150" y="435" type="curve" smooth="yes"/>
      <point x="304" y="434" type="line" smooth="yes"/>
      <point x="321" y="434"/>
      <point x="318" y="426"/>
      <point x="315" y="422" type="curve"/>
      <point x="229" y="294"/>
      <point x="149" y="188"/>
      <point x="71" y="78" type="curve" smooth="yes"/>
      <point x="54" y="57"/>
      <point x="28" y="18"/>
      <point x="28" y="12" type="curve" smooth="yes"/>
      <point x="28" y="7"/>
      <point x="38" y="-5"/>
    </contour>
  </outline>
</glyph>
<glyph name="bar" format="1">
  <advance width="333"/>
  <unicode hex="007C"/>
  <outline>
    <contour>
      <point x="127" y="-289" type="curve" smooth="yes"/>
      <point x="146" y="-289"/>
      <point x="233" y="-286"/>
      <point x="233" y="-238" type="curve" smooth="yes"/>
      <point x="233" y="672" type="line" smooth="yes"/>
      <point x="233" y="701"/>
      <point x="217" y="707"/>
      <point x="202" y="707" type="curve" smooth="yes"/>
      <point x="189" y="707"/>
      <point x="100" y="698"/>
      <point x="100" y="654" type="curve" smooth="yes"/>
      <point x="100" y="-248" type="line" smooth="yes"/>
      <point x="100" y="-282"/>
      <point x="114" y="-289"/>
    </contour>
  </outline>
</glyph>
